<svg width="24" height="24" viewBox="0 0 24 24" fill="none" xmlns="http://www.w3.org/2000/svg">
<path d="M9.95004 20.8047C8.37482 20.8047 6.80083 20.8047 5.22807 20.8047C4.9017 20.8047 4.60044 20.7817 4.53473 20.3709C4.43578 19.7522 4.53472 19.5234 5.00803 19.3761C5.27828 19.2925 5.36984 19.1015 5.40307 18.858C5.41416 18.7229 5.41637 18.5871 5.40971 18.4517C5.40971 13.7944 5.40971 9.13721 5.40971 4.47999C5.40491 4.29574 5.41876 4.11148 5.45106 3.93004C5.57659 3.32457 5.91034 3.01369 6.52172 3.00999C8.82105 2.99667 11.1204 2.99667 13.4197 3.00999C14.1227 3.01443 14.5325 3.47705 14.5354 4.21057C14.5413 5.66502 14.5354 7.11874 14.5354 8.57246C14.5354 9.20753 14.5901 9.28451 15.1697 9.4851C16.2632 9.86407 16.896 10.7567 16.8968 11.924C16.8968 13.2911 16.8923 14.659 16.8968 16.0268C16.8968 16.7988 17.2733 17.3221 17.9305 17.5072C18.8683 17.7751 19.8222 16.9187 19.6185 15.9639C19.4235 15.0513 19.1688 14.1519 18.9628 13.2415C18.584 11.5643 18.2739 9.8774 18.1616 8.15425C18.0656 6.68129 17.2076 5.60581 16.1739 4.64949C15.846 4.34528 15.5138 4.04773 15.5175 3.5481C15.5175 3.16913 15.6651 3.0359 16.0439 3.06995C16.2501 3.09869 16.4499 3.16252 16.6346 3.25869C18.2391 3.99147 19.3932 5.158 20.0312 6.81823C20.1678 7.17351 20.3266 7.52214 20.4543 7.88039C20.582 8.23863 20.4942 8.45699 20.1929 8.57394C19.676 8.77453 19.614 8.87001 19.7152 9.4133C19.8629 10.2105 20.0312 11.004 20.1759 11.8019C20.4107 13.095 20.7238 14.3718 20.9882 15.6597C21.1225 16.3252 21.0078 17.0169 20.666 17.6031C20.3242 18.1893 19.7792 18.6288 19.1348 18.838C17.788 19.2599 16.3289 18.6293 15.7537 17.374C15.4835 16.787 15.4739 16.1541 15.4628 15.5279C15.4429 14.3081 15.4429 13.0853 15.4414 11.8685C15.4471 11.6461 15.3938 11.4262 15.2871 11.2312C15.1785 11.0424 14.9917 11.0151 14.8034 11.0543C14.6152 11.0935 14.5391 11.2223 14.5339 11.4037C14.5339 11.5021 14.5339 11.6005 14.5339 11.6997V18.6863C14.5339 19.2688 14.5339 19.2666 15.1047 19.4317C15.1767 19.4468 15.2425 19.4831 15.2937 19.536C15.5153 19.8321 15.4414 20.177 15.3779 20.4923C15.3211 20.7595 15.0648 20.8025 14.8138 20.8025C13.1943 20.803 11.573 20.8037 9.95004 20.8047ZM9.9685 4.43706C9.12084 4.43706 8.27022 4.43336 7.42477 4.43706C6.90051 4.43706 6.79197 4.54883 6.79123 5.06326C6.79123 6.27024 6.79123 7.47699 6.79123 8.68348C6.79123 9.20161 6.95146 9.35927 7.48014 9.36001C9.13905 9.36297 10.798 9.36297 12.4569 9.36001C12.9907 9.36001 13.1687 9.19273 13.1524 8.64647C13.117 7.47773 13.1251 6.30898 13.1524 5.14023C13.1679 4.54809 13.038 4.43558 12.4362 4.43336C11.6151 4.43484 10.7918 4.43484 9.9685 4.43484V4.43706Z" fill="currentColor"/>
</svg>
