<svg width="24" height="24" viewBox="0 0 24 24" fill="none" xmlns="http://www.w3.org/2000/svg">
<path d="M11.5305 4.764C12.5503 4.7965 13.8054 4.7081 15.0605 4.8095C15.3901 4.83615 15.6397 4.96615 15.7105 5.32949C15.7755 5.67853 15.6501 5.92098 15.3023 6.02952C15.0215 6.11792 14.7278 6.12182 14.4359 6.11987C14.1545 6.11987 13.8737 6.10167 13.5909 6.09582C13.3439 6.09062 13.1515 6.17642 13.1515 6.45526C13.1515 6.73411 13.3322 6.82056 13.5864 6.81926C14.063 6.81579 14.5397 6.81579 15.0163 6.81926C15.8737 6.82771 16.4275 7.37694 16.4561 8.24208C16.4743 8.82186 16.4853 8.82706 17.0749 8.83356C17.355 8.83356 17.6351 8.81796 17.9146 8.88621C18.5919 9.05066 18.9774 9.53294 18.9917 10.2356C19.0014 10.6906 18.9436 11.1456 19.0372 11.5953C19.0677 11.7409 19.108 11.8813 19.2913 11.8735C19.4505 11.867 19.5045 11.7435 19.5253 11.607C19.7203 10.285 20.4489 10.1452 21.5136 10.1972C22.4268 10.2421 22.9195 10.7621 23.0827 11.7858C23.2479 12.8542 23.3132 13.9357 23.2777 15.0162C23.2535 15.7597 23.1612 16.4995 23.0021 17.2262C22.8363 17.9971 22.2806 18.4143 21.4837 18.4208C21.3212 18.4208 21.1587 18.4208 20.9962 18.4208C20.1057 18.4163 19.5818 17.9191 19.5311 17.0312C19.5336 16.944 19.5266 16.8568 19.5103 16.7712C19.4785 16.6535 19.3849 16.6035 19.2627 16.6035C19.2135 16.5976 19.1639 16.6113 19.1247 16.6418C19.0855 16.6722 19.0599 16.7168 19.0534 16.766C19.0244 16.9028 19.0059 17.0417 18.9982 17.1813C18.9897 17.6038 18.9982 18.0263 18.9897 18.4475C18.9728 19.2275 18.4197 19.7793 17.6488 19.7806C15.0605 19.7845 12.4727 19.7845 9.88537 19.7806C9.30038 19.7806 8.82134 19.5115 8.40925 19.1248C7.99716 18.738 7.58702 18.3526 7.21588 17.9314C6.84473 17.5102 6.40599 17.3815 5.88666 17.3822C5.49666 17.3822 5.10667 17.3822 4.71668 17.3822C3.78395 17.3763 3.24706 16.8518 3.22887 15.9158C3.21847 15.3854 3.22497 14.855 3.22887 14.3246C3.22887 14.1153 3.21262 13.9184 2.93052 13.9275C2.66273 13.9366 2.62568 14.1309 2.62438 14.3376C2.62113 15.0955 2.62438 15.8528 2.62438 16.6126C2.62438 16.9057 2.53078 17.1514 2.22789 17.2496C1.82035 17.3796 1.47975 17.1196 1.47715 16.6646C1.47152 15.7884 1.47152 14.9118 1.47715 14.0347C1.47715 13.6162 1.37641 13.2463 1.06506 12.948C0.818069 12.7114 0.78037 12.3916 0.77387 12.0789C0.758271 11.3217 0.729021 10.5619 0.77387 9.80399C0.816769 9.09876 1.26006 8.61387 1.86845 8.30512C2.22854 8.12183 2.61008 8.44747 2.61918 8.92911C2.63283 9.61094 2.62373 10.2941 2.62373 10.9746C2.62017 11.1258 2.63789 11.2768 2.67638 11.4231C2.72058 11.5778 2.80052 11.6831 2.96432 11.6772C3.15217 11.6688 3.22432 11.5271 3.22432 11.3627C3.23147 10.8427 3.22952 10.3227 3.23082 9.80269C3.22793 9.62957 3.24296 9.45662 3.27566 9.2866C3.41281 8.63271 3.79565 8.27522 4.45929 8.17578C4.90128 8.11078 5.34522 8.12183 5.78851 8.13353C6.0758 8.14133 6.25455 8.04838 6.35334 7.76499C6.58409 7.10135 7.05858 6.78546 7.76706 6.81341C8.22205 6.83096 8.67379 6.76076 9.12878 6.80756C9.37578 6.83291 9.59612 6.76856 9.59027 6.45136C9.58507 6.14522 9.37513 6.06137 9.12358 6.09192C8.64649 6.14327 8.17265 6.07567 7.69361 6.07827C7.21458 6.08087 6.94223 5.83843 6.93183 5.45819C6.92208 5.10264 7.17688 4.8472 7.62862 4.79455C8.2968 4.7159 8.96954 4.76855 9.63967 4.7588C10.1909 4.75685 10.7433 4.764 11.5305 4.764ZM13.7027 18.4468C14.8506 18.4468 15.9978 18.4468 17.1477 18.4468C17.5792 18.4468 17.6559 18.361 17.654 17.9269C17.654 17.4179 17.639 16.909 17.654 16.4013C17.6787 15.6578 17.9972 15.3178 18.733 15.2314C19.067 15.2023 19.4029 15.2045 19.7365 15.2379C20.6797 15.3029 20.8123 15.7579 20.8734 16.5099C20.8763 16.5638 20.8763 16.6178 20.8734 16.6717C20.8662 16.9317 20.9709 17.0845 21.2536 17.078C21.5247 17.0721 21.7203 16.9831 21.7359 16.675C21.7456 16.48 21.7586 16.285 21.7612 16.09C21.7788 14.7101 21.9848 13.3295 21.7385 11.9502C21.6846 11.6493 21.5435 11.5303 21.2289 11.5375C20.9364 11.5446 20.8805 11.7214 20.8701 11.9691C20.8383 12.7582 20.3241 13.3152 19.5441 13.3919C19.2631 13.4192 18.9799 13.4176 18.6992 13.3874C17.9842 13.3126 17.6689 12.9662 17.6481 12.2375C17.6338 11.7403 17.6442 11.2424 17.6416 10.7426C17.6416 10.2746 17.5441 10.1855 17.069 10.1706C16.6589 10.1582 16.2494 10.2018 15.8392 10.1186C15.459 10.0412 15.2646 9.81049 15.1749 9.45495C15.1099 9.1891 15.1099 8.92001 15.1047 8.64962C15.0956 8.26287 14.9813 8.15238 14.5926 8.15173C12.4379 8.15173 10.2838 8.15173 8.12975 8.14588C7.80476 8.14588 7.64487 8.23882 7.58962 8.58787C7.49732 9.17285 7.22952 9.3932 6.64194 9.47185C6.1135 9.54269 5.58311 9.4959 5.05337 9.50695C4.65558 9.5154 4.56718 9.58949 4.56653 9.97948C4.56264 11.8298 4.56264 13.6801 4.56653 15.5304C4.56653 15.9204 4.69263 16.0315 5.07612 16.0348C5.53111 16.0348 5.9861 16.0348 6.44109 16.0348C6.67968 16.028 6.91703 16.0714 7.13781 16.1621C7.35859 16.2528 7.5579 16.3887 7.72286 16.5612C8.1512 17.0045 8.62179 17.4062 9.02738 17.8723C9.37448 18.2726 9.82752 18.441 10.3547 18.439C11.4726 18.4423 12.588 18.4455 13.7027 18.4455V18.4468Z" fill="currentColor"/>
</svg>
