<svg width="48" height="48" viewBox="0 0 48 48" fill="none" xmlns="http://www.w3.org/2000/svg">
<path d="M21.7727 20.6771L19.9707 20.6755C19.4718 20.76 19.0845 21.157 19.012 21.6578C18.9397 22.1586 19.1987 22.6489 19.6533 22.8713L19.7672 22.8921L19.9937 22.902H22.2195C22.6254 22.8686 22.9994 22.6692 23.2535 22.3511L25.3174 20.2999L26.9644 23.0028L27.0664 23.4041L24.3404 28.7516L22.9298 34.6009C22.7724 35.1131 22.957 35.6688 23.3895 35.9851L23.7474 36.0992C24.0568 36.1508 24.3741 36.0773 24.6292 35.8947C24.8844 35.7121 25.0564 35.4357 25.1075 35.1261L26.5445 29.8029L28.9464 25.9343L29.0859 26.3248L29.8397 29.6442C29.9237 30.1865 30.3352 30.62 30.8725 30.7321L36.3781 30.8674C36.8141 30.985 37.2776 30.8243 37.5473 30.462C37.8169 30.0998 37.8379 29.6097 37.6001 29.2258C37.3721 28.943 37.0661 28.7335 36.72 28.623L32.3226 28.5401L31.7937 23.7559C31.7898 23.2682 31.6651 22.789 31.4308 22.3613L29.7556 18.9079H32.2829L33.7993 21.5936C34.1251 22.0514 34.7364 22.2026 35.238 21.9497C35.7397 21.6967 35.9816 21.1154 35.8072 20.5811L33.8873 17.1299C33.6232 16.6992 33.127 16.4683 32.6275 16.5436L25.9036 16.5442C25.4751 16.5056 25.0641 16.7232 24.8552 17.0993L21.7727 20.6772" fill="currentColor"/>
<path d="M23 13.5C23 12.1193 24.1192 11 25.5 11C26.8807 11 28 12.1193 28 13.5C28 14.8807 26.8807 16 25.5 16C24.1192 16 23 14.8807 23 13.5Z" fill="currentColor"/>
<path d="M15 35C15 35.5523 14.5523 36 14 36H13C12.4477 36 12 35.5523 12 35V13C12 12.4477 12.4477 12 13 12H14C14.5523 12 15 12.4477 15 13V35Z" fill="currentColor"/>
</svg>
