<svg width="64" height="64" viewBox="0 0 64 64" fill="none" xmlns="http://www.w3.org/2000/svg">
<g clip-path="url(#clip0_28_151)">
<path d="M22.1819 26.7238L19.3386 26.7212C18.5514 26.8546 17.9403 27.481 17.826 28.2711C17.7118 29.0613 18.1205 29.8349 18.8379 30.1858L19.0175 30.2185L19.3749 30.2342H22.8869C23.5272 30.1815 24.1173 29.8669 24.5183 29.365L27.7747 26.1286L30.3734 30.3932L30.5343 31.0265L26.2331 39.4637L24.0075 48.6929C23.7593 49.5011 24.0504 50.3779 24.7329 50.8768L25.2975 51.0569C25.7858 51.1384 26.2863 51.0223 26.6889 50.7343C27.0916 50.4462 27.3629 50.01 27.4435 49.5215L29.7109 41.1225L33.5006 35.0187L33.7208 35.6348L34.91 40.8721C35.0427 41.7278 35.6919 42.4118 36.5397 42.5886L45.2265 42.8022C45.9143 42.9877 46.6457 42.7342 47.0712 42.1626C47.4966 41.5911 47.5297 40.8177 47.1545 40.212C46.7947 39.7658 46.3119 39.4352 45.7658 39.2609L38.8276 39.1301L37.9931 31.5815C37.987 30.812 37.7903 30.0559 37.4206 29.3811L34.7774 23.9323H38.765L41.1576 28.1698C41.6717 28.8921 42.6361 29.1307 43.4276 28.7316C44.2191 28.3324 44.6008 27.4152 44.3257 26.5724L41.2964 21.1269C40.8797 20.4474 40.0968 20.0831 39.3087 20.2019L28.6996 20.2028C28.0236 20.1419 27.3751 20.4853 27.0454 21.0787L22.1818 26.7239" fill="white"/>
<path d="M22.1819 26.7238L19.3386 26.7212C18.5514 26.8546 17.9403 27.481 17.826 28.2711C17.7118 29.0613 18.1205 29.8349 18.8379 30.1858L19.0175 30.2185L19.3749 30.2342H22.8869C23.5272 30.1815 24.1173 29.8669 24.5183 29.365L27.7747 26.1286L30.3734 30.3932L30.5343 31.0265L26.2331 39.4637L24.0075 48.6929C23.7593 49.5011 24.0504 50.3779 24.7329 50.8768L25.2975 51.0569C25.7858 51.1384 26.2863 51.0223 26.6889 50.7343C27.0916 50.4462 27.3629 50.01 27.4435 49.5215L29.7109 41.1225L33.5006 35.0187L33.7208 35.6348L34.91 40.8721C35.0427 41.7278 35.6919 42.4118 36.5397 42.5886L45.2265 42.8022C45.9143 42.9877 46.6457 42.7342 47.0712 42.1626C47.4966 41.5911 47.5297 40.8177 47.1545 40.212C46.7947 39.7658 46.3119 39.4352 45.7658 39.2609L38.8276 39.1301L37.9931 31.5815C37.987 30.812 37.7903 30.0559 37.4206 29.3811L34.7774 23.9323H38.765L41.1576 28.1698C41.6717 28.8921 42.6361 29.1307 43.4276 28.7316C44.2191 28.3324 44.6008 27.4152 44.3257 26.5724L41.2964 21.1269C40.8797 20.4474 40.0968 20.0831 39.3087 20.2019L28.6996 20.2028C28.0236 20.1419 27.3751 20.4853 27.0454 21.0787L22.1818 26.7239L22.1819 26.7238Z" fill="white"/>
<path d="M24.5756 16.2762C24.5756 14.4851 26.0276 13.033 27.8188 13.033C29.61 13.033 31.0621 14.4851 31.0621 16.2762C31.0621 18.0674 29.61 19.5195 27.8188 19.5195C26.0276 19.5195 24.5756 18.0674 24.5756 16.2762Z" fill="white"/>
<path d="M24.5756 16.2762C24.5756 14.4851 26.0276 13.033 27.8188 13.033C29.61 13.033 31.0621 14.4851 31.0621 16.2762C31.0621 18.0674 29.61 19.5195 27.8188 19.5195C26.0276 19.5195 24.5756 18.0674 24.5756 16.2762Z" fill="white"/>
<path d="M11.3689 51.1155H-9.00001V13H11.3689V51.1155Z" fill="white"/>
</g>
<defs>
<clipPath id="clip0_28_151">
<rect width="64" height="64" fill="white"/>
</clipPath>
</defs>
</svg>
