<svg width="331" height="150" viewBox="0 0 331 150" fill="none" xmlns="http://www.w3.org/2000/svg">
<path d="M30.6092 138H12.6292C11.1599 138 10.0772 137.691 9.38122 137.072C8.76255 136.376 8.45322 135.293 8.45322 133.824V58.656C8.45322 57.1867 8.76255 56.1427 9.38122 55.524C10.0772 54.828 11.1599 54.48 12.6292 54.48H30.6092C32.0786 54.48 33.1226 54.828 33.7412 55.524C34.4372 56.1427 34.7852 57.1867 34.7852 58.656V85.336H39.4252L51.3732 58.308C51.9146 56.916 52.6492 55.9493 53.5772 55.408C54.5052 54.7893 55.7039 54.48 57.1732 54.48H75.0372C76.3519 54.48 77.2412 54.828 77.7052 55.524C78.1692 56.1427 78.1306 57.0707 77.5892 58.308L65.7572 85.336C70.0879 85.568 73.5292 87.1147 76.0812 89.976C78.7106 92.76 80.0252 96.472 80.0252 101.112V133.824C80.0252 135.293 79.6772 136.376 78.9812 137.072C78.3626 137.691 77.3186 138 75.8492 138H57.9852C56.5159 138 55.4332 137.691 54.7372 137.072C54.1186 136.376 53.8092 135.293 53.8092 133.824V111.204C53.8092 109.967 53.4999 109 52.8812 108.304C52.2626 107.608 51.3346 107.26 50.0972 107.26H34.7852V133.824C34.7852 135.293 34.4372 136.376 33.7412 137.072C33.1226 137.691 32.0786 138 30.6092 138ZM125.276 78.84L119.824 96.472H138.036L132.584 78.84C132.275 78.144 131.927 77.6413 131.54 77.332C131.231 77.0227 130.844 76.868 130.38 76.868H127.48C127.016 76.868 126.591 77.0227 126.204 77.332C125.895 77.6413 125.585 78.144 125.276 78.84ZM118.664 133.824C118.664 135.293 118.316 136.376 117.62 137.072C117.001 137.691 115.957 138 114.488 138H97.4361C95.9668 138 94.8841 137.691 94.1881 137.072C93.5694 136.376 93.2601 135.293 93.2601 133.824V103.2C93.2601 100.88 93.6081 98.212 94.3041 95.196C95.0774 92.18 96.2374 88.6613 97.7841 84.64L107.876 58.308C108.34 56.9933 109.036 56.0267 109.964 55.408C110.969 54.7893 112.245 54.48 113.792 54.48H144.996C146.465 54.48 147.664 54.7893 148.592 55.408C149.597 56.0267 150.332 56.9933 150.796 58.308L160.888 84.64C162.435 88.6613 163.556 92.18 164.252 95.196C165.025 98.212 165.412 100.88 165.412 103.2V133.824C165.412 135.293 165.064 136.376 164.368 137.072C163.749 137.691 162.705 138 161.236 138H143.72C142.173 138 141.013 137.691 140.24 137.072C139.544 136.376 139.196 135.293 139.196 133.824V117.584H118.664V133.824ZM205.95 75.36V90.208H214.65C216.661 90.208 218.014 89.7053 218.71 88.7C219.406 87.6173 219.754 86.3027 219.754 84.756V80.812C219.754 79.2653 219.406 77.9893 218.71 76.984C218.014 75.9013 216.661 75.36 214.65 75.36H205.95ZM201.774 138H183.91C182.441 138 181.358 137.691 180.662 137.072C180.044 136.376 179.734 135.293 179.734 133.824V58.656C179.734 57.1867 180.044 56.1427 180.662 55.524C181.358 54.828 182.441 54.48 183.91 54.48H222.538C231.2 54.48 237.154 56.2973 240.402 59.932C243.728 63.4893 245.39 68.1293 245.39 73.852V79.188C245.39 82.436 244.888 85.22 243.882 87.54C242.954 89.7827 241.292 91.4067 238.894 92.412C243.07 92.876 246.434 94.5773 248.986 97.516C251.616 100.455 252.93 104.36 252.93 109.232V133.824C252.93 135.293 252.582 136.376 251.886 137.072C251.268 137.691 250.224 138 248.754 138H230.774C229.305 138 228.222 137.691 227.526 137.072C226.908 136.376 226.598 135.293 226.598 133.824V116.076C226.598 114.375 226.25 113.137 225.554 112.364C224.936 111.513 223.814 111.088 222.19 111.088H205.95V133.824C205.95 135.293 205.602 136.376 204.906 137.072C204.288 137.691 203.244 138 201.774 138ZM301.87 138H283.078C281.608 138 280.526 137.691 279.83 137.072C279.211 136.376 278.902 135.293 278.902 133.824V76.868H261.85C260.38 76.868 259.298 76.5587 258.602 75.94C257.983 75.244 257.674 74.1613 257.674 72.692V58.656C257.674 57.1867 257.983 56.1427 258.602 55.524C259.298 54.828 260.38 54.48 261.85 54.48H323.098C324.567 54.48 325.611 54.828 326.23 55.524C326.926 56.1427 327.274 57.1867 327.274 58.656V72.692C327.274 74.1613 326.926 75.244 326.23 75.94C325.611 76.5587 324.567 76.868 323.098 76.868H306.046V133.824C306.046 135.293 305.698 136.376 305.002 137.072C304.383 137.691 303.339 138 301.87 138Z" fill="url(#paint0_linear_2_55)"/>
<path d="M9.38122 137.072L6.39158 139.729L6.5479 139.905L6.72376 140.062L9.38122 137.072ZM9.38122 55.524L6.55279 52.6956H6.55279L9.38122 55.524ZM33.7412 55.524L30.7516 58.1814L30.9079 58.3573L31.0838 58.5136L33.7412 55.524ZM34.7852 85.336H30.7852V89.336H34.7852V85.336ZM39.4252 85.336V89.336H42.0304L43.0837 86.9533L39.4252 85.336ZM51.3732 58.308L55.0317 59.9253L55.0684 59.8423L55.1012 59.7578L51.3732 58.308ZM53.5772 55.408L55.5927 58.8631L55.6963 58.8027L55.796 58.7362L53.5772 55.408ZM77.7052 55.524L74.377 57.7428L74.4386 57.8352L74.5052 57.924L77.7052 55.524ZM77.5892 58.308L81.2535 59.9121L81.2538 59.9113L77.5892 58.308ZM65.7572 85.336L62.093 83.7319L59.7774 89.0214L65.5432 89.3303L65.7572 85.336ZM76.0812 89.976L73.096 92.6385L73.134 92.681L73.1732 92.7225L76.0812 89.976ZM78.9812 137.072L81.8096 139.9H81.8097L78.9812 137.072ZM54.7372 137.072L51.7476 139.729L51.9039 139.905L52.0798 140.062L54.7372 137.072ZM34.7852 107.26V103.26H30.7852V107.26H34.7852ZM33.7412 137.072L30.9128 134.244H30.9128L33.7412 137.072ZM30.6092 134H12.6292V142H30.6092V134ZM12.6292 134C12.1599 134 11.9085 133.949 11.8141 133.922C11.7311 133.898 11.8539 133.918 12.0387 134.082L6.72376 140.062C8.47359 141.617 10.719 142 12.6292 142V134ZM12.3709 134.415C12.5351 134.599 12.555 134.722 12.5313 134.639C12.5043 134.545 12.4532 134.293 12.4532 133.824H4.45322C4.45322 135.734 4.83618 137.98 6.39158 139.729L12.3709 134.415ZM12.4532 133.824V58.656H4.45322V133.824H12.4532ZM12.4532 58.656C12.4532 58.4268 12.4654 58.2512 12.4813 58.1224C12.4972 57.993 12.515 57.9257 12.5204 57.9074C12.5313 57.8706 12.4734 58.0887 12.2096 58.3524L6.55279 52.6956C4.81152 54.4368 4.45322 56.805 4.45322 58.656H12.4532ZM12.2096 58.3524C12.0431 58.519 11.9087 58.5589 11.9393 58.5491C11.9889 58.5331 12.1954 58.48 12.6292 58.48V50.48C10.6166 50.48 8.29919 50.9492 6.55279 52.6956L12.2096 58.3524ZM12.6292 58.48H30.6092V50.48H12.6292V58.48ZM30.6092 58.48C30.821 58.48 30.9762 58.4927 31.0829 58.5074C31.1896 58.5222 31.2335 58.5371 31.2293 58.5357C31.2236 58.5338 31.163 58.5129 31.0704 58.4548C30.975 58.3949 30.8617 58.3054 30.7516 58.1814L36.7309 52.8665C35.0076 50.9279 32.5701 50.48 30.6092 50.48V58.48ZM31.0838 58.5136C30.9599 58.4035 30.8703 58.2902 30.8104 58.1948C30.7523 58.1022 30.7314 58.0416 30.7295 58.0359C30.7281 58.0317 30.743 58.0756 30.7578 58.1824C30.7725 58.289 30.7852 58.4442 30.7852 58.656H38.7852C38.7852 56.6951 38.3374 54.2576 36.3987 52.5344L31.0838 58.5136ZM30.7852 58.656V85.336H38.7852V58.656H30.7852ZM34.7852 89.336H39.4252V81.336H34.7852V89.336ZM43.0837 86.9533L55.0317 59.9253L47.7147 56.6907L35.7667 83.7187L43.0837 86.9533ZM55.1012 59.7578C55.4408 58.8845 55.7008 58.8 55.5927 58.8631L51.5617 51.9529C49.5976 53.0986 48.3883 54.9474 47.6452 56.8582L55.1012 59.7578ZM55.796 58.7362C55.888 58.6749 56.2469 58.48 57.1732 58.48V50.48C55.1609 50.48 53.1225 50.9038 51.3584 52.0798L55.796 58.7362ZM57.1732 58.48H75.0372V50.48H57.1732V58.48ZM75.0372 58.48C75.3709 58.48 75.3915 58.5281 75.2326 58.466C75.1425 58.4307 74.9984 58.361 74.8343 58.2344C74.6664 58.1049 74.5077 57.9388 74.377 57.7428L81.0334 53.3052C79.4751 50.9677 76.8956 50.48 75.0372 50.48V58.48ZM74.5052 57.924C74.3091 57.6625 74.177 57.3787 74.1021 57.1066C74.0297 56.8432 74.0228 56.6353 74.0277 56.5175C74.0361 56.3155 74.0789 56.3519 73.9246 56.7047L81.2538 59.9113C81.9333 58.3583 82.7357 55.5646 80.9052 53.124L74.5052 57.924ZM73.9249 56.7039L62.093 83.7319L69.4215 86.9401L81.2535 59.9121L73.9249 56.7039ZM65.5432 89.3303C68.9619 89.5134 71.3489 90.6795 73.096 92.6385L79.0664 87.3135C75.7095 83.5498 71.2139 81.6226 65.9712 81.3417L65.5432 89.3303ZM73.1732 92.7225C74.9585 94.6129 76.0252 97.2646 76.0252 101.112H84.0252C84.0252 95.6794 82.4626 90.9071 78.9893 87.2295L73.1732 92.7225ZM76.0252 101.112V133.824H84.0252V101.112H76.0252ZM76.0252 133.824C76.0252 134.258 75.9721 134.464 75.9561 134.514C75.9463 134.545 75.9863 134.41 76.1528 134.244L81.8097 139.9C83.5561 138.154 84.0252 135.837 84.0252 133.824H76.0252ZM76.1528 134.244C76.4165 133.98 76.6346 133.922 76.5979 133.933C76.5795 133.938 76.5122 133.956 76.3829 133.972C76.254 133.988 76.0785 134 75.8492 134V142C77.7002 142 80.0684 141.642 81.8096 139.9L76.1528 134.244ZM75.8492 134H57.9852V142H75.8492V134ZM57.9852 134C57.5159 134 57.2645 133.949 57.1701 133.922C57.0871 133.898 57.2099 133.918 57.3947 134.082L52.0798 140.062C53.8296 141.617 56.075 142 57.9852 142V134ZM57.7269 134.415C57.8911 134.599 57.911 134.722 57.8873 134.639C57.8603 134.545 57.8092 134.293 57.8092 133.824H49.8092C49.8092 135.734 50.1922 137.98 51.7476 139.729L57.7269 134.415ZM57.8092 133.824V111.204H49.8092V133.824H57.8092ZM57.8092 111.204C57.8092 109.314 57.3292 107.287 55.8709 105.647L49.8916 110.961C49.849 110.914 49.8168 110.866 49.7944 110.826C49.7725 110.787 49.766 110.765 49.7675 110.77C49.772 110.784 49.8092 110.912 49.8092 111.204H57.8092ZM55.8709 105.647C54.2647 103.84 52.0812 103.26 50.0972 103.26V111.26C50.3508 111.26 50.3979 111.297 50.3167 111.266C50.2732 111.25 50.2036 111.218 50.1213 111.163C50.0381 111.106 49.9595 111.038 49.8916 110.961L55.8709 105.647ZM50.0972 103.26H34.7852V111.26H50.0972V103.26ZM30.7852 107.26V133.824H38.7852V107.26H30.7852ZM30.7852 133.824C30.7852 134.258 30.7321 134.464 30.7161 134.514C30.7063 134.545 30.7462 134.41 30.9128 134.244L36.5696 139.9C38.316 138.154 38.7852 135.837 38.7852 133.824H30.7852ZM30.9128 134.244C31.1765 133.98 31.3946 133.922 31.3579 133.933C31.3395 133.938 31.2722 133.956 31.1428 133.972C31.014 133.988 30.8385 134 30.6092 134V142C32.4602 142 34.8284 141.642 36.5696 139.9L30.9128 134.244ZM125.276 78.84L121.621 77.2154L121.525 77.432L121.455 77.6584L125.276 78.84ZM119.824 96.472L116.003 95.2904L114.4 100.472H119.824V96.472ZM138.036 96.472V100.472H143.46L141.858 95.2904L138.036 96.472ZM132.584 78.84L136.406 77.6584L136.336 77.432L136.239 77.2154L132.584 78.84ZM131.54 77.332L128.712 80.1604L128.868 80.3171L129.041 80.4555L131.54 77.332ZM126.204 77.332L123.705 74.2085L123.532 74.3469L123.376 74.5036L126.204 77.332ZM117.62 137.072L114.792 134.244L117.62 137.072ZM94.1881 137.072L91.1985 139.729L91.3548 139.905L91.5306 140.062L94.1881 137.072ZM94.3041 95.196L90.4294 94.2025L90.4174 94.2494L90.4065 94.2966L94.3041 95.196ZM97.7841 84.64L101.517 86.0759L101.519 86.0715L97.7841 84.64ZM107.876 58.308L111.611 59.7395L111.63 59.6896L111.648 59.6393L107.876 58.308ZM109.964 55.408L107.868 52.0014L107.806 52.0395L107.745 52.0798L109.964 55.408ZM148.592 55.408L146.373 58.7362L146.434 58.7765L146.496 58.8146L148.592 55.408ZM150.796 58.308L147.024 59.6393L147.042 59.6896L147.061 59.7395L150.796 58.308ZM160.888 84.64L157.153 86.0715L157.155 86.0759L160.888 84.64ZM164.252 95.196L160.355 96.0954L160.365 96.1426L160.377 96.1895L164.252 95.196ZM164.368 137.072L167.197 139.9H167.197L164.368 137.072ZM140.24 137.072L137.412 139.9L137.568 140.057L137.741 140.195L140.24 137.072ZM139.196 117.584H143.196V113.584H139.196V117.584ZM118.664 117.584V113.584H114.664V117.584H118.664ZM121.455 77.6584L116.003 95.2904L123.646 97.6536L129.098 80.0216L121.455 77.6584ZM119.824 100.472H138.036V92.472H119.824V100.472ZM141.858 95.2904L136.406 77.6584L128.763 80.0216L134.215 97.6536L141.858 95.2904ZM136.239 77.2154C135.797 76.2206 135.123 75.0759 134.039 74.2085L129.041 80.4555C128.954 80.3858 128.894 80.3249 128.857 80.2839C128.82 80.2431 128.803 80.2184 128.802 80.2178C128.802 80.2172 128.814 80.2353 128.838 80.2776C128.861 80.3196 128.892 80.3809 128.929 80.4645L136.239 77.2154ZM134.369 74.5036C133.26 73.3951 131.834 72.868 130.38 72.868V80.868C130.161 80.868 129.863 80.83 129.533 80.6979C129.198 80.564 128.92 80.3691 128.712 80.1604L134.369 74.5036ZM130.38 72.868H127.48V80.868H130.38V72.868ZM127.48 72.868C126.044 72.868 124.75 73.3727 123.705 74.2085L128.703 80.4555C128.588 80.5474 128.413 80.6583 128.18 80.7432C127.943 80.8292 127.702 80.868 127.48 80.868V72.868ZM123.376 74.5036C122.553 75.3264 122.004 76.3529 121.621 77.2154L128.931 80.4646C129.033 80.2352 129.108 80.101 129.147 80.0374C129.165 80.0076 129.168 80.0057 129.154 80.0244C129.14 80.0426 129.101 80.0923 129.033 80.1604L123.376 74.5036ZM114.664 133.824C114.664 134.258 114.611 134.464 114.595 134.514C114.585 134.545 114.625 134.41 114.792 134.244L120.449 139.9C122.195 138.154 122.664 135.837 122.664 133.824H114.664ZM114.792 134.244C115.055 133.98 115.273 133.922 115.237 133.933C115.218 133.938 115.151 133.956 115.022 133.972C114.893 133.988 114.717 134 114.488 134V142C116.339 142 118.707 141.642 120.449 139.9L114.792 134.244ZM114.488 134H97.4361V142H114.488V134ZM97.4361 134C96.9667 134 96.7154 133.949 96.621 133.922C96.538 133.898 96.6608 133.918 96.8456 134.082L91.5306 140.062C93.2805 141.617 95.5258 142 97.4361 142V134ZM97.1777 134.415C97.3419 134.599 97.3619 134.722 97.3382 134.639C97.3112 134.545 97.2601 134.293 97.2601 133.824H89.2601C89.2601 135.734 89.6431 137.98 91.1985 139.729L97.1777 134.415ZM97.2601 133.824V103.2H89.2601V133.824H97.2601ZM97.2601 103.2C97.2601 101.264 97.5526 98.9078 98.2017 96.0954L90.4065 94.2966C89.6635 97.5162 89.2601 100.496 89.2601 103.2H97.2601ZM98.1787 96.1895C98.9022 93.3681 100.007 90.0031 101.517 86.0759L94.0507 83.2041C92.4678 87.3196 91.2527 90.9919 90.4294 94.2025L98.1787 96.1895ZM101.519 86.0715L111.611 59.7395L104.141 56.8765L94.049 83.2085L101.519 86.0715ZM111.648 59.6393C111.897 58.9336 112.139 58.7658 112.183 58.7362L107.745 52.0798C105.934 53.2875 104.783 55.053 104.104 56.9767L111.648 59.6393ZM112.06 58.8146C112.268 58.6869 112.761 58.48 113.792 58.48V50.48C111.73 50.48 109.671 50.8918 107.868 52.0014L112.06 58.8146ZM113.792 58.48H144.996V50.48H113.792V58.48ZM144.996 58.48C145.922 58.48 146.281 58.6749 146.373 58.7362L150.811 52.0798C149.047 50.9038 147.008 50.48 144.996 50.48V58.48ZM146.496 58.8146C146.586 58.8702 146.807 59.0247 147.024 59.6393L154.568 56.9767C153.857 54.962 152.609 53.1831 150.688 52.0014L146.496 58.8146ZM147.061 59.7395L157.153 86.0715L164.623 83.2085L154.531 56.8765L147.061 59.7395ZM157.155 86.0759C158.658 89.9847 159.713 93.317 160.355 96.0954L168.15 94.2966C167.399 91.043 166.211 87.338 164.621 83.2041L157.155 86.0759ZM160.377 96.1895C161.094 98.9838 161.412 101.307 161.412 103.2H169.412C169.412 100.453 168.957 97.4402 168.127 94.2025L160.377 96.1895ZM161.412 103.2V133.824H169.412V103.2H161.412ZM161.412 133.824C161.412 134.258 161.359 134.464 161.343 134.514C161.333 134.545 161.373 134.41 161.54 134.244L167.197 139.9C168.943 138.154 169.412 135.837 169.412 133.824H161.412ZM161.54 134.244C161.803 133.98 162.021 133.922 161.985 133.933C161.966 133.938 161.899 133.956 161.77 133.972C161.641 133.988 161.465 134 161.236 134V142C163.087 142 165.455 141.642 167.197 139.9L161.54 134.244ZM161.236 134H143.72V142H161.236V134ZM143.72 134C143.2 134 142.884 133.947 142.721 133.903C142.565 133.862 142.611 133.846 142.739 133.949L137.741 140.195C139.525 141.623 141.746 142 143.72 142V134ZM143.069 134.244C143.235 134.41 143.275 134.545 143.265 134.514C143.249 134.464 143.196 134.258 143.196 133.824H135.196C135.196 135.837 135.665 138.154 137.412 139.9L143.069 134.244ZM143.196 133.824V117.584H135.196V133.824H143.196ZM139.196 113.584H118.664V121.584H139.196V113.584ZM114.664 117.584V133.824H122.664V117.584H114.664ZM205.95 75.36V71.36H201.95V75.36H205.95ZM205.95 90.208H201.95V94.208H205.95V90.208ZM218.71 88.7L221.999 90.9768L222.038 90.9206L222.075 90.863L218.71 88.7ZM218.71 76.984L215.346 79.147L215.383 79.2046L215.422 79.2608L218.71 76.984ZM180.662 137.072L177.673 139.729L177.829 139.905L178.005 140.062L180.662 137.072ZM180.662 55.524L177.834 52.6956L180.662 55.524ZM240.402 59.932L237.42 62.5973L237.45 62.6308L237.48 62.6635L240.402 59.932ZM243.882 87.54L240.212 85.9496L240.199 85.98L240.186 86.0106L243.882 87.54ZM238.894 92.412L237.348 88.7232L223.131 94.6851L238.453 96.3875L238.894 92.412ZM248.986 97.516L245.966 100.139L245.986 100.161L246.006 100.183L248.986 97.516ZM251.886 137.072L254.715 139.9L251.886 137.072ZM227.526 137.072L224.537 139.729L224.693 139.905L224.869 140.062L227.526 137.072ZM225.554 112.364L222.32 114.717L222.442 114.885L222.581 115.04L225.554 112.364ZM205.95 111.088V107.088H201.95V111.088H205.95ZM204.906 137.072L202.078 134.244H202.078L204.906 137.072ZM201.95 75.36V90.208H209.95V75.36H201.95ZM205.95 94.208H214.65V86.208H205.95V94.208ZM214.65 94.208C217.119 94.208 220.175 93.6123 221.999 90.9768L215.422 86.4232C215.509 86.2964 215.609 86.2009 215.695 86.138C215.775 86.0785 215.816 86.0681 215.781 86.0813C215.687 86.116 215.353 86.208 214.65 86.208V94.208ZM222.075 90.863C223.263 89.0152 223.754 86.9133 223.754 84.756H215.754C215.754 85.692 215.55 86.2195 215.346 86.537L222.075 90.863ZM223.754 84.756V80.812H215.754V84.756H223.754ZM223.754 80.812C223.754 78.6677 223.268 76.5394 221.999 74.7072L215.422 79.2608C215.545 79.4393 215.754 79.863 215.754 80.812H223.754ZM222.075 74.821C220.295 72.0519 217.22 71.36 214.65 71.36V79.36C215.327 79.36 215.626 79.4552 215.688 79.4799C215.708 79.4879 215.66 79.4715 215.581 79.4085C215.498 79.3425 215.414 79.2525 215.346 79.147L222.075 74.821ZM214.65 71.36H205.95V79.36H214.65V71.36ZM201.774 134H183.91V142H201.774V134ZM183.91 134C183.441 134 183.19 133.949 183.095 133.922C183.012 133.898 183.135 133.918 183.32 134.082L178.005 140.062C179.755 141.617 182 142 183.91 142V134ZM183.652 134.415C183.816 134.599 183.836 134.722 183.813 134.639C183.786 134.545 183.734 134.293 183.734 133.824H175.734C175.734 135.734 176.117 137.98 177.673 139.729L183.652 134.415ZM183.734 133.824V58.656H175.734V133.824H183.734ZM183.734 58.656C183.734 58.4268 183.747 58.2512 183.763 58.1224C183.778 57.993 183.796 57.9257 183.802 57.9074C183.813 57.8706 183.755 58.0887 183.491 58.3524L177.834 52.6956C176.093 54.4368 175.734 56.805 175.734 58.656H183.734ZM183.491 58.3524C183.324 58.519 183.19 58.5589 183.221 58.5491C183.27 58.5331 183.477 58.48 183.91 58.48V50.48C181.898 50.48 179.58 50.9492 177.834 52.6956L183.491 58.3524ZM183.91 58.48H222.538V50.48H183.91V58.48ZM222.538 58.48C230.888 58.48 235.347 60.2777 237.42 62.5973L243.385 57.2667C238.962 52.317 231.512 50.48 222.538 50.48V58.48ZM237.48 62.6635C239.994 65.3522 241.39 68.9541 241.39 73.852H249.39C249.39 67.3046 247.462 61.6264 243.325 57.2005L237.48 62.6635ZM241.39 73.852V79.188H249.39V73.852H241.39ZM241.39 79.188C241.39 82.0383 240.948 84.2526 240.212 85.9496L247.553 89.1304C248.828 86.1874 249.39 82.8337 249.39 79.188H241.39ZM240.186 86.0106C239.693 87.2041 238.848 88.0939 237.348 88.7232L240.441 96.1008C243.735 94.7194 246.216 92.3612 247.579 89.0694L240.186 86.0106ZM238.453 96.3875C241.717 96.7502 244.128 98.0223 245.966 100.139L252.007 94.8933C248.741 91.1324 244.424 89.0018 239.336 88.4365L238.453 96.3875ZM246.006 100.183C247.834 102.226 248.93 105.102 248.93 109.232H256.93C256.93 103.618 255.398 98.683 251.967 94.8488L246.006 100.183ZM248.93 109.232V133.824H256.93V109.232H248.93ZM248.93 133.824C248.93 134.258 248.877 134.464 248.861 134.514C248.852 134.545 248.892 134.41 249.058 134.244L254.715 139.9C256.461 138.154 256.93 135.837 256.93 133.824H248.93ZM249.058 134.244C249.322 133.98 249.54 133.922 249.503 133.933C249.485 133.938 249.417 133.956 249.288 133.972C249.159 133.988 248.984 134 248.754 134V142C250.605 142 252.974 141.642 254.715 139.9L249.058 134.244ZM248.754 134H230.774V142H248.754V134ZM230.774 134C230.305 134 230.054 133.949 229.959 133.922C229.876 133.898 229.999 133.918 230.184 134.082L224.869 140.062C226.619 141.617 228.864 142 230.774 142V134ZM230.516 134.415C230.68 134.599 230.7 134.722 230.677 134.639C230.65 134.545 230.598 134.293 230.598 133.824H222.598C222.598 135.734 222.981 137.98 224.537 139.729L230.516 134.415ZM230.598 133.824V116.076H222.598V133.824H230.598ZM230.598 116.076C230.598 113.976 230.194 111.54 228.528 109.688L222.581 115.04C222.433 114.875 222.441 114.791 222.487 114.955C222.536 115.129 222.598 115.481 222.598 116.076H230.598ZM228.789 110.011C227.078 107.658 224.377 107.088 222.19 107.088V115.088C222.425 115.088 222.592 115.104 222.702 115.121C222.812 115.138 222.848 115.154 222.831 115.147C222.811 115.139 222.735 115.108 222.631 115.031C222.524 114.953 222.414 114.847 222.32 114.717L228.789 110.011ZM222.19 107.088H205.95V115.088H222.19V107.088ZM201.95 111.088V133.824H209.95V111.088H201.95ZM201.95 133.824C201.95 134.258 201.897 134.464 201.881 134.514C201.872 134.545 201.911 134.41 202.078 134.244L207.735 139.9C209.481 138.154 209.95 135.837 209.95 133.824H201.95ZM202.078 134.244C202.342 133.98 202.56 133.922 202.523 133.933C202.505 133.938 202.437 133.956 202.308 133.972C202.179 133.988 202.004 134 201.774 134V142C203.625 142 205.994 141.642 207.735 139.9L202.078 134.244ZM279.83 137.072L276.84 139.729L276.996 139.905L277.172 140.062L279.83 137.072ZM278.902 76.868H282.902V72.868H278.902V76.868ZM258.602 75.94L255.612 78.5975L255.768 78.7733L255.944 78.9296L258.602 75.94ZM258.602 55.524L255.773 52.6956L255.773 52.6956L258.602 55.524ZM326.23 55.524L323.24 58.1815L323.396 58.3573L323.572 58.5136L326.23 55.524ZM306.046 76.868V72.868H302.046V76.868H306.046ZM305.002 137.072L302.173 134.244H302.173L305.002 137.072ZM301.87 134H283.078V142H301.87V134ZM283.078 134C282.608 134 282.357 133.949 282.263 133.922C282.18 133.898 282.302 133.918 282.487 134.082L277.172 140.062C278.922 141.617 281.168 142 283.078 142V134ZM282.819 134.415C282.984 134.599 283.004 134.722 282.98 134.639C282.953 134.545 282.902 134.293 282.902 133.824H274.902C274.902 135.734 275.285 137.98 276.84 139.729L282.819 134.415ZM282.902 133.824V76.868H274.902V133.824H282.902ZM278.902 72.868H261.85V80.868H278.902V72.868ZM261.85 72.868C261.38 72.868 261.129 72.8169 261.035 72.7899C260.952 72.7662 261.074 72.7862 261.259 72.9504L255.944 78.9296C257.694 80.485 259.94 80.868 261.85 80.868V72.868ZM261.591 73.2825C261.756 73.4673 261.776 73.5901 261.752 73.5071C261.725 73.4127 261.674 73.1614 261.674 72.692H253.674C253.674 74.6022 254.057 76.8476 255.612 78.5975L261.591 73.2825ZM261.674 72.692V58.656H253.674V72.692H261.674ZM261.674 58.656C261.674 58.4268 261.686 58.2512 261.702 58.1224C261.718 57.993 261.736 57.9257 261.741 57.9074C261.752 57.8706 261.694 58.0887 261.43 58.3524L255.773 52.6956C254.032 54.4368 253.674 56.805 253.674 58.656H261.674ZM261.43 58.3524C261.264 58.519 261.129 58.5589 261.16 58.5491C261.209 58.5331 261.416 58.48 261.85 58.48V50.48C259.837 50.48 257.52 50.9492 255.773 52.6956L261.43 58.3524ZM261.85 58.48H323.098V50.48H261.85V58.48ZM323.098 58.48C323.31 58.48 323.465 58.4927 323.571 58.5074C323.678 58.5222 323.722 58.5371 323.718 58.5357C323.712 58.5338 323.652 58.5129 323.559 58.4548C323.464 58.3949 323.35 58.3054 323.24 58.1815L329.219 52.8665C327.496 50.9279 325.059 50.48 323.098 50.48V58.48ZM323.572 58.5136C323.448 58.4035 323.359 58.2902 323.299 58.1948C323.241 58.1022 323.22 58.0416 323.218 58.0359C323.217 58.0317 323.232 58.0756 323.246 58.1824C323.261 58.289 323.274 58.4442 323.274 58.656H331.274C331.274 56.6951 330.826 54.2576 328.887 52.5344L323.572 58.5136ZM323.274 58.656V72.692H331.274V58.656H323.274ZM323.274 72.692C323.274 73.1258 323.221 73.3323 323.205 73.382C323.195 73.4126 323.235 73.2781 323.401 73.1116L329.058 78.7684C330.805 77.022 331.274 74.7046 331.274 72.692H323.274ZM323.401 73.1116C323.665 72.8478 323.883 72.7899 323.846 72.8008C323.828 72.8062 323.761 72.824 323.631 72.84C323.503 72.8558 323.327 72.868 323.098 72.868V80.868C324.949 80.868 327.317 80.5097 329.058 78.7684L323.401 73.1116ZM323.098 72.868H306.046V80.868H323.098V72.868ZM302.046 76.868V133.824H310.046V76.868H302.046ZM302.046 133.824C302.046 134.258 301.993 134.464 301.977 134.514C301.967 134.545 302.007 134.41 302.173 134.244L307.83 139.9C309.577 138.154 310.046 135.837 310.046 133.824H302.046ZM302.173 134.244C302.437 133.98 302.655 133.922 302.618 133.933C302.6 133.938 302.533 133.956 302.403 133.972C302.275 133.988 302.099 134 301.87 134V142C303.721 142 306.089 141.642 307.83 139.9L302.173 134.244Z" fill="#4D433E"/>
<path d="M15.44 33.282C14.576 33.21 13.748 33.048 12.956 32.796C12.2 32.544 11.534 32.238 10.958 31.878C10.382 31.518 9.91404 31.158 9.55404 30.798C9.23004 30.402 9.06804 30.042 9.06804 29.718C9.06804 29.394 9.17604 29.124 9.39204 28.908C9.64404 28.692 9.96804 28.584 10.364 28.584C10.976 28.584 11.516 28.638 11.984 28.746C12.488 28.818 12.974 28.908 13.442 29.016C13.91 29.088 14.396 29.178 14.9 29.286C15.44 29.358 16.052 29.394 16.736 29.394C17.852 29.394 18.86 29.196 19.76 28.8C20.696 28.368 21.506 27.81 22.19 27.126C22.874 26.406 23.396 25.578 23.756 24.642C24.152 23.706 24.35 22.716 24.35 21.672C24.35 21.096 24.206 20.286 23.918 19.242C23.666 18.198 23.162 17.19 22.406 16.218C21.686 15.21 20.678 14.346 19.382 13.626C18.122 12.87 16.466 12.492 14.414 12.492C13.586 12.492 12.83 12.546 12.146 12.654C11.462 12.762 10.814 12.888 10.202 13.032C9.62604 13.14 9.05004 13.248 8.47404 13.356C7.89804 13.464 7.28604 13.518 6.63804 13.518C6.06204 13.518 5.52204 13.374 5.01804 13.086C4.51404 12.762 4.08204 12.366 3.72204 11.898C3.36204 11.394 3.07404 10.818 2.85804 10.17C2.64204 9.522 2.53404 8.856 2.53404 8.172C2.53404 7.56 2.76804 7.092 3.23604 6.768C3.66804 6.408 4.22604 6.156 4.91004 6.012C5.63004 5.832 6.40404 5.724 7.23204 5.688C8.06004 5.652 8.87004 5.634 9.66204 5.634C12.398 5.634 15.134 5.868 17.87 6.336C20.642 6.768 23.126 7.56 25.322 8.712C27.518 9.828 29.3 11.34 30.668 13.248C32.036 15.12 32.72 17.496 32.72 20.376C32.72 22.176 32.306 23.868 31.478 25.452C30.65 27.036 29.552 28.422 28.184 29.61C26.816 30.798 25.232 31.734 23.432 32.418C21.632 33.102 19.742 33.444 17.762 33.444C16.97 33.444 16.196 33.39 15.44 33.282ZM8.31204 12.006C8.74404 11.466 9.48204 11.196 10.526 11.196C10.778 11.196 11.12 11.25 11.552 11.358C12.02 11.43 12.47 11.592 12.902 11.844C13.334 12.096 13.712 12.456 14.036 12.924C14.36 13.392 14.522 13.986 14.522 14.706C14.522 15.102 14.486 15.534 14.414 16.002C14.342 16.434 14.252 16.866 14.144 17.298C13.604 19.35 13.226 21.51 13.01 23.778C12.83 26.01 12.74 28.296 12.74 30.636C12.74 33.12 12.794 35.568 12.902 37.98C13.046 40.356 13.172 42.624 13.28 44.784C13.28 45.612 13.19 46.224 13.01 46.62C12.866 47.052 12.542 47.268 12.038 47.268C10.202 47.268 8.76204 46.746 7.71804 45.702C6.67404 44.694 6.00804 43.092 5.72004 40.896C5.07204 38.304 4.56804 35.712 4.20804 33.12C3.88404 30.528 3.72204 28.044 3.72204 25.668C3.72204 24.012 3.81204 22.446 3.99204 20.97C4.17204 19.458 4.44204 18.108 4.80204 16.92C5.19804 15.732 5.68404 14.724 6.26004 13.896C6.83604 13.032 7.52004 12.402 8.31204 12.006ZM61.6105 35.766C61.8265 36.558 61.6645 37.512 61.1245 38.628C60.6205 39.708 59.9005 40.77 58.9645 41.814C58.0645 42.822 57.0205 43.686 55.8325 44.406C54.6805 45.126 53.5825 45.486 52.5385 45.486C51.1345 45.486 49.9465 45.216 48.9745 44.676C48.0025 44.136 47.2465 43.128 46.7065 41.652C46.0585 43.02 45.1765 44.028 44.0605 44.676C42.9805 45.324 41.9185 45.684 40.8745 45.756C39.1105 45.756 37.5085 45.288 36.0685 44.352C34.6645 43.38 33.6205 41.868 32.9365 39.816C32.5045 38.556 32.3245 37.278 32.3965 35.982C32.4685 34.65 32.7205 33.354 33.1525 32.094C33.5845 30.834 34.1785 29.646 34.9345 28.53C35.6905 27.414 36.5365 26.442 37.4725 25.614C38.4085 24.75 39.3985 24.084 40.4425 23.616C41.5225 23.112 42.6025 22.86 43.6825 22.86C44.0785 22.86 44.4565 22.914 44.8165 23.022C45.2125 23.094 45.5545 23.184 45.8425 23.292L46.0585 21.834C46.0945 21.618 46.2565 21.438 46.5445 21.294C46.8325 21.15 47.1205 21.078 47.4085 21.078C47.8765 21.078 48.3985 21.15 48.9745 21.294C49.5865 21.438 50.1625 21.636 50.7025 21.888C51.2785 22.14 51.8005 22.446 52.2685 22.806C52.7365 23.166 53.0785 23.562 53.2945 23.994C53.3665 24.462 53.3665 25.65 53.2945 27.558C53.2225 29.466 53.0425 32.328 52.7545 36.144C52.6825 36.684 52.6465 37.224 52.6465 37.764C52.6465 38.304 52.6465 38.862 52.6465 39.438C52.7905 40.05 53.2405 40.356 53.9965 40.356C54.7885 40.356 55.5445 39.978 56.2645 39.222C56.9845 38.466 57.7225 37.512 58.4785 36.36L59.4505 34.74C59.7025 34.452 59.9905 34.308 60.3145 34.308C60.6025 34.308 60.8725 34.488 61.1245 34.848C61.3765 35.172 61.5385 35.478 61.6105 35.766ZM42.6565 39.87C43.4125 39.834 43.9885 39.69 44.3845 39.438C44.7805 39.15 45.0685 38.79 45.2485 38.358C45.4285 37.89 45.5545 37.368 45.6265 36.792C45.6985 36.18 45.7705 35.55 45.8425 34.902C45.8785 33.498 45.9325 32.13 46.0045 30.798C46.0765 29.43 46.1305 28.062 46.1665 26.694C45.9145 26.442 45.4825 26.352 44.8705 26.424C43.9345 26.64 43.1245 27.198 42.4405 28.098C41.7565 28.998 41.2165 30.042 40.8205 31.23C40.4245 32.418 40.1725 33.624 40.0645 34.848C39.9925 36.072 40.1005 37.116 40.3885 37.98C40.6045 38.7 40.8925 39.204 41.2525 39.492C41.6485 39.744 42.1165 39.87 42.6565 39.87ZM84.5368 36.09C84.6808 36.99 84.4648 37.98 83.8888 39.06C83.3128 40.14 82.5388 41.166 81.5668 42.138C80.6308 43.074 79.5508 43.866 78.3268 44.514C77.1388 45.126 75.9868 45.432 74.8708 45.432C73.2508 45.432 71.9188 45.108 70.8748 44.46C69.8308 43.812 69.0208 42.858 68.4448 41.598C68.1208 40.698 68.0488 39.708 68.2288 38.628C68.4448 37.548 68.6968 36.486 68.9848 35.442C69.3088 34.362 69.5608 33.336 69.7408 32.364C69.9568 31.356 69.9028 30.492 69.5788 29.772C69.4348 29.304 69.1468 28.998 68.7148 28.854C68.2828 28.674 67.7968 28.566 67.2568 28.53C66.7168 28.458 66.1588 28.422 65.5828 28.422C65.0428 28.422 64.6108 28.368 64.2868 28.26C64.1788 29.412 63.9628 30.636 63.6388 31.932C63.3508 33.228 62.9728 34.452 62.5048 35.604C62.0728 36.72 61.5868 37.692 61.0468 38.52C60.5068 39.312 59.9668 39.816 59.4268 40.032C59.1748 40.176 58.9048 40.212 58.6168 40.14C58.1488 40.14 57.7528 39.672 57.4288 38.736C57.3928 38.628 57.4288 38.466 57.5368 38.25C57.6088 38.034 57.6988 37.836 57.8068 37.656C58.2388 36.792 58.6348 35.946 58.9948 35.118C59.3188 34.254 59.6068 33.39 59.8588 32.526C60.1108 31.626 60.2728 30.69 60.3448 29.718C60.4168 28.746 60.3988 27.702 60.2908 26.586C59.9308 26.334 59.5168 25.956 59.0488 25.452C58.5808 24.912 58.2568 24.408 58.0768 23.94C57.7888 22.86 57.6628 21.888 57.6988 21.024C57.7348 20.16 57.8788 19.422 58.1308 18.81C58.3468 18.198 58.6708 17.73 59.1028 17.406C59.5348 17.046 60.0028 16.848 60.5068 16.812C60.9028 16.812 61.3888 16.866 61.9648 16.974C62.5768 17.082 63.1888 17.226 63.8008 17.406C64.4848 17.586 65.1148 17.856 65.6908 18.216C66.3028 18.54 66.6988 18.9 66.8788 19.296C66.9508 19.548 66.8968 19.836 66.7168 20.16C66.5728 20.484 66.3748 20.844 66.1228 21.24C65.9068 21.6 65.6908 21.996 65.4748 22.428C65.2588 22.86 65.1328 23.31 65.0968 23.778C65.6008 24.174 66.3028 24.462 67.2028 24.642C68.1388 24.786 68.9308 24.858 69.5788 24.858C70.1548 24.858 70.6948 24.75 71.1988 24.534C71.7028 24.282 72.1168 24.156 72.4408 24.156C72.8008 24.156 73.1968 24.246 73.6288 24.426C74.0968 24.57 74.5288 24.786 74.9248 25.074C75.3568 25.326 75.7168 25.614 76.0048 25.938C76.2928 26.262 76.4908 26.568 76.5988 26.856C76.9228 27.792 77.0128 28.872 76.8688 30.096C76.7248 31.32 76.5268 32.544 76.2748 33.768C76.0228 34.956 75.7888 36.09 75.5728 37.17C75.3928 38.214 75.4108 39.024 75.6268 39.6C75.6988 40.176 76.0948 40.464 76.8148 40.464C77.4268 40.464 78.1828 40.122 79.0828 39.438C79.9828 38.718 81.0628 37.35 82.3228 35.334C82.3948 35.262 82.4848 35.154 82.5928 35.01C82.7008 34.866 82.7908 34.794 82.8628 34.794C83.1868 34.83 83.5108 34.956 83.8348 35.172C84.1588 35.388 84.3928 35.694 84.5368 36.09ZM112.222 36.252C112.366 36.648 112.384 37.062 112.276 37.494C112.204 37.926 112.078 38.394 111.898 38.898C111.538 39.726 111.034 40.536 110.386 41.328C109.738 42.12 109 42.84 108.172 43.488C107.38 44.1 106.534 44.604 105.634 45C104.734 45.396 103.87 45.594 103.042 45.594C101.422 45.594 100.216 45.252 99.424 44.568C98.632 43.848 98.002 42.678 97.534 41.058C97.102 41.706 96.58 42.318 95.968 42.894C95.356 43.434 94.672 43.92 93.916 44.352C93.196 44.748 92.422 45.054 91.594 45.27C90.802 45.522 90.01 45.648 89.218 45.648C88.102 45.648 86.968 45.27 85.816 44.514C84.7 43.758 83.836 42.75 83.224 41.49C83.116 41.13 83.008 40.788 82.9 40.464C82.756 40.104 82.648 39.726 82.576 39.33C82.504 38.646 82.432 37.8 82.36 36.792C82.288 35.748 82.234 34.632 82.198 33.444C82.126 32.22 82.09 30.924 82.09 29.556C82.09 28.188 82.126 26.802 82.198 25.398C81.37 25.182 80.65 24.894 80.038 24.534C79.426 24.138 79.03 23.634 78.85 23.022C78.67 22.482 78.634 22.05 78.742 21.726C78.85 21.366 79.084 21.114 79.444 20.97C79.768 20.79 80.218 20.682 80.794 20.646C81.334 20.574 81.964 20.538 82.684 20.538C82.828 19.35 83.044 18.216 83.332 17.136C83.584 16.056 83.89 15.102 84.25 14.274C84.61 13.446 85.042 12.78 85.546 12.276C86.05 11.736 86.626 11.394 87.274 11.25C88.03 11.25 88.768 11.376 89.488 11.628C90.352 11.916 91.198 12.366 92.026 12.978C92.854 13.554 93.376 14.202 93.592 14.922C93.7 15.21 93.754 15.48 93.754 15.732C93.754 15.984 93.61 16.254 93.322 16.542C93.034 17.082 92.746 17.658 92.458 18.27C92.206 18.882 91.936 19.602 91.648 20.43H94.294C94.69 20.43 95.086 20.628 95.482 21.024C95.914 21.384 96.22 21.708 96.4 21.996C96.652 22.716 96.688 23.328 96.508 23.832C96.328 24.3 96.022 24.678 95.59 24.966C95.194 25.254 94.726 25.47 94.186 25.614C93.646 25.758 93.124 25.848 92.62 25.884C92.26 25.92 91.864 25.938 91.432 25.938C91.036 25.938 90.658 25.956 90.298 25.992C90.082 27.144 89.902 28.296 89.758 29.448C89.65 30.6 89.542 31.716 89.434 32.796C89.362 33.876 89.326 34.902 89.326 35.874C89.326 36.81 89.362 37.62 89.434 38.304C89.398 38.52 89.398 38.718 89.434 38.898C89.47 39.042 89.524 39.186 89.596 39.33C89.74 39.798 90.01 40.14 90.406 40.356C90.802 40.536 91.27 40.626 91.81 40.626C92.422 40.626 93.07 40.374 93.754 39.87C94.474 39.366 95.194 38.538 95.914 37.386C96.166 36.918 96.4 36.432 96.616 35.928C96.58 35.316 96.544 34.578 96.508 33.714C96.472 32.814 96.454 31.896 96.454 30.96C96.49 29.988 96.562 29.016 96.67 28.044C96.778 27.072 96.976 26.208 97.264 25.452C97.588 24.696 98.002 24.084 98.506 23.616C99.01 23.148 99.658 22.914 100.45 22.914C101.71 22.914 102.646 23.094 103.258 23.454C103.87 23.778 104.32 24.138 104.608 24.534C104.716 24.822 104.806 25.074 104.878 25.29C104.95 25.47 104.95 25.668 104.878 25.884H104.932C104.896 25.884 104.878 25.902 104.878 25.938C104.986 26.19 105.058 26.424 105.094 26.64C105.13 26.82 105.166 27 105.202 27.18C105.166 27.792 105.094 28.404 104.986 29.016C104.878 29.628 104.752 30.312 104.608 31.068C104.5 31.824 104.374 32.67 104.23 33.606C104.122 34.542 104.05 35.622 104.014 36.846C104.014 37.242 103.996 37.656 103.96 38.088C103.96 38.52 103.978 38.952 104.014 39.384C104.122 39.888 104.554 40.14 105.31 40.14C106.066 40.14 106.84 39.672 107.632 38.736C108.46 37.8 109.288 36.702 110.116 35.442C110.296 35.262 110.494 35.1 110.71 34.956C110.962 35.028 111.25 35.19 111.574 35.442C111.898 35.658 112.114 35.928 112.222 36.252ZM98.83 16.434C98.506 15.462 98.344 14.58 98.344 13.788C98.38 12.96 98.524 12.258 98.776 11.682C99.028 11.106 99.37 10.656 99.802 10.332C100.234 10.008 100.702 9.846 101.206 9.846C101.674 9.846 102.232 9.918 102.88 10.062C103.564 10.206 104.212 10.404 104.824 10.656C105.436 10.908 105.976 11.214 106.444 11.574C106.948 11.934 107.272 12.33 107.416 12.762C107.596 13.086 107.578 13.374 107.362 13.626L106.93 14.166C106.642 14.49 106.408 14.904 106.228 15.408C106.048 15.876 105.886 16.362 105.742 16.866L105.418 17.622C105.238 18.126 105.04 18.558 104.824 18.918C104.608 19.242 104.338 19.422 104.014 19.458H104.068C103.996 19.458 103.888 19.476 103.744 19.512C103.636 19.512 103.546 19.512 103.474 19.512C103.042 19.512 102.592 19.476 102.124 19.404C101.692 19.332 101.26 19.188 100.828 18.972C100.432 18.756 100.054 18.45 99.694 18.054C99.37 17.622 99.082 17.082 98.83 16.434ZM138.392 35.766C138.608 36.558 138.446 37.512 137.906 38.628C137.402 39.708 136.682 40.77 135.746 41.814C134.846 42.822 133.802 43.686 132.614 44.406C131.462 45.126 130.364 45.486 129.32 45.486C127.916 45.486 126.728 45.216 125.756 44.676C124.784 44.136 124.028 43.128 123.488 41.652C122.84 43.02 121.958 44.028 120.842 44.676C119.762 45.324 118.7 45.684 117.656 45.756C115.892 45.756 114.29 45.288 112.85 44.352C111.446 43.38 110.402 41.868 109.718 39.816C109.286 38.556 109.106 37.278 109.178 35.982C109.25 34.65 109.502 33.354 109.934 32.094C110.366 30.834 110.96 29.646 111.716 28.53C112.472 27.414 113.318 26.442 114.254 25.614C115.19 24.75 116.18 24.084 117.224 23.616C118.304 23.112 119.384 22.86 120.464 22.86C120.86 22.86 121.238 22.914 121.598 23.022C121.994 23.094 122.336 23.184 122.624 23.292L122.84 21.834C122.876 21.618 123.038 21.438 123.326 21.294C123.614 21.15 123.902 21.078 124.19 21.078C124.658 21.078 125.18 21.15 125.756 21.294C126.368 21.438 126.944 21.636 127.484 21.888C128.06 22.14 128.582 22.446 129.05 22.806C129.518 23.166 129.86 23.562 130.076 23.994C130.148 24.462 130.148 25.65 130.076 27.558C130.004 29.466 129.824 32.328 129.536 36.144C129.464 36.684 129.428 37.224 129.428 37.764C129.428 38.304 129.428 38.862 129.428 39.438C129.572 40.05 130.022 40.356 130.778 40.356C131.57 40.356 132.326 39.978 133.046 39.222C133.766 38.466 134.504 37.512 135.26 36.36L136.232 34.74C136.484 34.452 136.772 34.308 137.096 34.308C137.384 34.308 137.654 34.488 137.906 34.848C138.158 35.172 138.32 35.478 138.392 35.766ZM119.438 39.87C120.194 39.834 120.77 39.69 121.166 39.438C121.562 39.15 121.85 38.79 122.03 38.358C122.21 37.89 122.336 37.368 122.408 36.792C122.48 36.18 122.552 35.55 122.624 34.902C122.66 33.498 122.714 32.13 122.786 30.798C122.858 29.43 122.912 28.062 122.948 26.694C122.696 26.442 122.264 26.352 121.652 26.424C120.716 26.64 119.906 27.198 119.222 28.098C118.538 28.998 117.998 30.042 117.602 31.23C117.206 32.418 116.954 33.624 116.846 34.848C116.774 36.072 116.882 37.116 117.17 37.98C117.386 38.7 117.674 39.204 118.034 39.492C118.43 39.744 118.898 39.87 119.438 39.87ZM165.962 36.414C166.178 37.494 166.016 38.574 165.476 39.654C164.936 40.734 164.162 41.724 163.154 42.624C162.182 43.524 161.048 44.262 159.752 44.838C158.492 45.378 157.232 45.648 155.972 45.648C154.748 45.648 153.596 45.342 152.516 44.73C151.436 44.082 150.626 43.2 150.086 42.084C149.114 43.236 147.944 44.172 146.576 44.892C145.208 45.576 143.84 45.918 142.472 45.918C141.932 45.918 141.356 45.828 140.744 45.648C140.132 45.504 139.556 45.27 139.016 44.946C138.476 44.586 137.99 44.136 137.558 43.596C137.126 43.02 136.784 42.336 136.532 41.544C136.244 39.96 135.956 38.034 135.668 35.766C135.38 33.498 135.164 31.122 135.02 28.638C134.876 26.154 134.822 23.652 134.858 21.132C134.894 18.576 135.074 16.218 135.398 14.058C135.722 11.862 136.226 9.954 136.91 8.334C137.594 6.714 138.512 5.58 139.664 4.932C139.952 4.788 140.33 4.716 140.798 4.716C141.374 4.716 141.932 4.788 142.472 4.932C143.444 5.184 144.398 5.634 145.334 6.282C146.306 6.894 146.936 7.578 147.224 8.334C147.332 8.73 147.332 9.126 147.224 9.522C147.116 9.918 146.972 10.314 146.792 10.71C146.396 11.43 146 12.438 145.604 13.734C145.244 14.994 144.884 16.452 144.524 18.108C144.2 19.728 143.894 21.456 143.606 23.292C143.354 25.092 143.138 26.874 142.958 28.638C142.814 30.366 142.724 32.004 142.688 33.552C142.652 35.064 142.706 36.36 142.85 37.44C142.886 37.8 142.922 38.16 142.958 38.52C143.03 38.88 143.138 39.222 143.282 39.546C143.462 39.834 143.696 40.068 143.984 40.248C144.272 40.428 144.65 40.518 145.118 40.518C145.73 40.518 146.306 40.248 146.846 39.708C147.422 39.132 148.07 38.25 148.79 37.062L148.682 35.172C148.61 34.02 148.556 32.652 148.52 31.068C148.484 29.448 148.502 27.756 148.574 25.992C148.646 24.228 148.79 22.446 149.006 20.646C149.258 18.846 149.6 17.172 150.032 15.624C150.464 14.076 151.004 12.726 151.652 11.574C152.336 10.386 153.182 9.522 154.19 8.982C154.73 8.982 155.324 9.072 155.972 9.252C156.656 9.432 157.304 9.702 157.916 10.062C158.564 10.422 159.14 10.854 159.644 11.358C160.148 11.826 160.508 12.384 160.724 13.032C160.868 13.428 160.868 13.914 160.724 14.49C160.58 15.03 160.346 15.48 160.022 15.84C159.338 16.776 158.726 18.18 158.186 20.052C157.682 21.888 157.268 23.868 156.944 25.992C156.656 28.116 156.458 30.222 156.35 32.31C156.278 34.398 156.314 36.144 156.458 37.548C156.494 37.872 156.512 38.178 156.512 38.466C156.548 38.718 156.602 38.934 156.674 39.114C156.854 39.582 157.07 39.942 157.322 40.194C157.61 40.446 158.006 40.572 158.51 40.572C159.194 40.572 159.842 40.356 160.454 39.924C161.066 39.492 161.768 38.754 162.56 37.71C162.704 37.53 162.848 37.296 162.992 37.008C163.172 36.72 163.334 36.432 163.478 36.144C163.658 35.856 163.82 35.604 163.964 35.388C164.108 35.172 164.234 35.064 164.342 35.064C164.63 35.064 164.936 35.208 165.26 35.496C165.62 35.748 165.854 36.054 165.962 36.414ZM177.002 57.798C176.498 57.906 175.994 57.996 175.49 58.068C173.258 58.32 171.53 58.032 170.306 57.204C169.118 56.376 168.398 55.278 168.146 53.91C167.93 52.866 168.002 51.858 168.362 50.886C168.722 49.914 169.298 49.014 170.09 48.186C170.918 47.394 171.944 46.692 173.168 46.08C174.392 45.504 175.76 45.054 177.272 44.73C177.344 43.938 177.362 43.29 177.326 42.786C177.326 42.282 177.362 41.67 177.434 40.95C177.038 41.49 176.57 42.03 176.03 42.57C175.526 43.11 174.95 43.596 174.302 44.028C173.69 44.46 173.006 44.802 172.25 45.054C171.53 45.342 170.774 45.486 169.982 45.486C167.966 45.486 166.436 44.856 165.392 43.596C164.348 42.3 163.664 40.572 163.34 38.412C163.124 37.044 162.998 35.478 162.962 33.714C162.926 31.914 163.052 30.222 163.34 28.638C163.592 27.018 164.042 25.668 164.69 24.588C165.338 23.472 166.256 22.914 167.444 22.914C168.452 22.914 169.244 23.022 169.82 23.238C170.432 23.454 170.882 23.724 171.17 24.048C171.494 24.336 171.71 24.66 171.818 25.02C171.926 25.38 171.998 25.704 172.034 25.992C172.142 26.676 172.142 27.342 172.034 27.99C171.926 28.602 171.764 29.286 171.548 30.042C171.368 30.762 171.152 31.59 170.9 32.526C170.684 33.426 170.522 34.488 170.414 35.712C170.378 35.928 170.342 36.306 170.306 36.846C170.306 37.35 170.342 37.872 170.414 38.412C170.486 38.916 170.612 39.348 170.792 39.708C171.008 40.068 171.314 40.248 171.71 40.248C172.502 40.248 173.186 39.96 173.762 39.384C174.374 38.772 174.896 37.962 175.328 36.954C175.76 35.946 176.12 34.812 176.408 33.552C176.732 32.256 177.02 30.924 177.272 29.556C177.416 27.792 177.74 26.37 178.244 25.29C178.784 24.21 179.756 23.67 181.16 23.67C182.456 23.67 183.482 23.958 184.238 24.534C185.03 25.074 185.57 25.974 185.858 27.234C185.894 28.206 185.858 29.16 185.75 30.096C185.678 31.032 185.552 32.112 185.372 33.336C185.192 34.56 184.976 36.018 184.724 37.71C184.472 39.402 184.238 41.49 184.022 43.974C185.138 43.866 186.398 43.866 187.802 43.974C189.206 44.082 190.538 44.352 191.798 44.784C193.094 45.216 194.21 45.828 195.146 46.62C196.118 47.412 196.712 48.42 196.928 49.644C197.072 50.328 197.018 50.976 196.766 51.588C196.514 52.236 195.974 52.614 195.146 52.722C194.534 52.794 193.832 52.686 193.04 52.398C192.248 52.146 191.6 51.66 191.096 50.94C189.944 49.464 188.828 48.492 187.748 48.024C186.704 47.592 185.552 47.376 184.292 47.376L183.806 47.43C183.518 50.166 182.888 52.416 181.916 54.18C180.944 55.944 179.306 57.15 177.002 57.798ZM173.222 52.614C173.15 52.722 173.168 52.83 173.276 52.938C173.348 53.298 173.492 53.622 173.708 53.91C173.96 54.234 174.284 54.36 174.68 54.288C175.256 54.216 175.706 54.018 176.03 53.694C176.39 53.37 176.66 52.938 176.84 52.398C177.02 51.894 177.146 51.3 177.218 50.616C177.29 49.932 177.326 49.212 177.326 48.456C176.21 48.816 175.256 49.302 174.464 49.914C173.672 50.562 173.258 51.462 173.222 52.614Z" fill="#4D433E"/>
<defs>
<linearGradient id="paint0_linear_2_55" x1="165.5" y1="48.5" x2="165.5" y2="141.5" gradientUnits="userSpaceOnUse">
<stop stop-color="#F5D700"/>
<stop offset="1" stop-color="#EEBF01"/>
</linearGradient>
</defs>
</svg>
