<svg width="96" height="48" viewBox="0 0 96 48" fill="none" xmlns="http://www.w3.org/2000/svg">
<path d="M22.584 32.28H18.864C18.56 32.28 18.336 32.216 18.192 32.088C18.064 31.944 18 31.72 18 31.416V15.864C18 15.56 18.064 15.344 18.192 15.216C18.336 15.072 18.56 15 18.864 15H29.568C29.872 15 30.088 15.072 30.216 15.216C30.36 15.344 30.432 15.56 30.432 15.864V18.72C30.432 19.024 30.36 19.248 30.216 19.392C30.088 19.52 29.872 19.584 29.568 19.584H23.448V22.08H27.624C27.928 22.08 28.144 22.152 28.272 22.296C28.416 22.424 28.488 22.64 28.488 22.944V25.824C28.488 26.128 28.416 26.352 28.272 26.496C28.144 26.624 27.928 26.688 27.624 26.688H23.448V31.416C23.448 31.72 23.376 31.944 23.232 32.088C23.104 32.216 22.888 32.28 22.584 32.28Z" fill="currentColor"/>
<path d="M45.9159 32.28H33.6999C33.3959 32.28 33.1719 32.216 33.0279 32.088C32.8999 31.944 32.8359 31.72 32.8359 31.416V15.864C32.8359 15.56 32.8999 15.344 33.0279 15.216C33.1719 15.072 33.3959 15 33.6999 15H37.4199C37.7239 15 37.9399 15.072 38.0679 15.216C38.2119 15.344 38.2839 15.56 38.2839 15.864V27.744H41.5719V23.856C41.5719 23.552 41.6359 23.336 41.7639 23.208C41.9079 23.064 42.1319 22.992 42.4359 22.992H45.9159C46.2199 22.992 46.4359 23.064 46.5639 23.208C46.7079 23.336 46.7799 23.552 46.7799 23.856V31.416C46.7799 31.72 46.7079 31.944 46.5639 32.088C46.4359 32.216 46.2199 32.28 45.9159 32.28Z" fill="currentColor"/>
<path d="M50.0034 32.28C49.6994 32.28 49.4754 32.216 49.3314 32.088C49.2034 31.944 49.1394 31.72 49.1394 31.416V28.56C49.1394 28.256 49.2034 28.04 49.3314 27.912C49.4754 27.768 49.6994 27.696 50.0034 27.696H52.3794V19.632H50.0034C49.6994 19.632 49.4754 19.568 49.3314 19.44C49.2034 19.296 49.1394 19.072 49.1394 18.768V15.864C49.1394 15.56 49.2034 15.344 49.3314 15.216C49.4754 15.072 49.6994 15 50.0034 15H60.2274C60.5314 15 60.7474 15.072 60.8754 15.216C61.0194 15.344 61.0914 15.56 61.0914 15.864V18.768C61.0914 19.072 61.0194 19.296 60.8754 19.44C60.7474 19.568 60.5314 19.632 60.2274 19.632H57.8994V27.696H60.2274C60.5314 27.696 60.7474 27.768 60.8754 27.912C61.0194 28.04 61.0914 28.256 61.0914 28.56V31.416C61.0914 31.72 61.0194 31.944 60.8754 32.088C60.7474 32.216 60.5314 32.28 60.2274 32.28H50.0034Z" fill="currentColor"/>
<path d="M68.6387 32.28H64.9187C64.6147 32.28 64.3907 32.216 64.2467 32.088C64.1187 31.944 64.0547 31.72 64.0547 31.416V15.864C64.0547 15.56 64.1187 15.344 64.2467 15.216C64.3907 15.072 64.6147 15 64.9187 15H72.2627C74.4387 15 75.9267 15.432 76.7267 16.296C77.5267 17.16 77.9267 18.288 77.9267 19.68V22.752C77.9267 24.144 77.5267 25.272 76.7267 26.136C75.9267 27 74.4387 27.432 72.2627 27.432H69.5027V31.416C69.5027 31.72 69.4307 31.944 69.2867 32.088C69.1587 32.216 68.9427 32.28 68.6387 32.28ZM69.4547 19.488V23.112H71.6147C72.0787 23.112 72.3827 22.992 72.5267 22.752C72.6707 22.512 72.7427 22.24 72.7427 21.936V20.664C72.7427 20.36 72.6707 20.088 72.5267 19.848C72.3827 19.608 72.0787 19.488 71.6147 19.488H69.4547Z" fill="currentColor"/>
</svg>
