<svg width="48" height="48" viewBox="0 0 48 48" fill="none" xmlns="http://www.w3.org/2000/svg">
<path d="M11.2773 34.8763L24.7973 30.9523C26.264 30.5203 27.3877 29.9323 28.1684 29.1883C28.9254 28.4203 29.304 27.1483 29.304 25.3723V22.7803C29.304 21.0043 28.9254 19.7443 28.1684 19.0003C27.3877 18.2323 26.264 17.6323 24.7973 17.2003L11.2773 13.2763C10.8278 13.1803 10.5084 13.2283 10.3191 13.4203C10.1062 13.6123 9.99977 13.9363 9.99977 14.3923V19.1443C9.99977 19.6003 10.1062 19.9483 10.3191 20.1883C10.5084 20.4043 10.8278 20.5483 11.2773 20.6203L21.4616 23.3923C21.6982 23.4403 21.8638 23.5123 21.9584 23.6083C22.0294 23.7043 22.0649 23.8603 22.0649 24.0763C22.0649 24.2923 22.0294 24.4483 21.9584 24.5443C21.8638 24.6403 21.6982 24.7123 21.4616 24.7603L11.2773 27.5323C10.8278 27.6043 10.5084 27.7603 10.3191 28.0003C10.1062 28.2163 9.99977 28.5523 9.99977 29.0083V33.7603C9.99977 34.2163 10.1062 34.5403 10.3191 34.7323C10.5084 34.9243 10.8278 34.9723 11.2773 34.8763Z" fill="currentColor"/>
<path fill-rule="evenodd" clip-rule="evenodd" d="M42 24.0002C42 22.8957 41.1174 22.0002 40.0286 22.0002H34.1143C33.0255 22.0002 32.1429 22.8957 32.1429 24.0002C32.1429 25.1048 33.0255 26.0002 34.1143 26.0002H40.0286C41.1174 26.0002 42 25.1048 42 24.0002Z" fill="currentColor"/>
<path fill-rule="evenodd" clip-rule="evenodd" d="M36.7402 8.89081C36.1363 7.97175 34.9123 7.72341 34.0064 8.33611L28.0921 12.3361C27.1862 12.9488 26.9414 14.1906 27.5453 15.1096C28.1493 16.0287 29.3733 16.277 30.2792 15.6643L36.1934 11.6643C37.0994 11.0516 37.3442 9.80987 36.7402 8.89081Z" fill="currentColor"/>
<path fill-rule="evenodd" clip-rule="evenodd" d="M36.7402 39.1097C36.1363 40.0287 34.9123 40.2771 34.0064 39.6644L28.0921 35.6644C27.1862 35.0517 26.9414 33.8099 27.5453 32.8909C28.1493 31.9718 29.3733 31.7235 30.2792 32.3362L36.1934 36.3362C37.0994 36.9489 37.3442 38.1906 36.7402 39.1097Z" fill="currentColor"/>
</svg>
