<svg width="96" height="48" viewBox="0 0 96 48" fill="none" xmlns="http://www.w3.org/2000/svg">
<path d="M26.992 27.744C26.992 28.48 26.888 29.152 26.68 29.76C26.472 30.352 26.104 30.864 25.576 31.296C25.064 31.712 24.352 32.04 23.44 32.28C22.528 32.52 21.368 32.64 19.96 32.64C18.568 32.64 17.416 32.52 16.504 32.28C15.608 32.04 14.896 31.712 14.368 31.296C13.856 30.864 13.496 30.352 13.288 29.76C13.096 29.152 13 28.48 13 27.744V23.856C13 23.552 13.064 23.336 13.192 23.208C13.336 23.064 13.56 22.992 13.864 22.992H17.344C17.648 22.992 17.864 23.064 17.992 23.208C18.136 23.336 18.208 23.552 18.208 23.856V26.784C18.208 27.104 18.304 27.376 18.496 27.6C18.704 27.808 19.176 27.912 19.912 27.912C20.6 27.912 21.032 27.808 21.208 27.6C21.4 27.376 21.496 27.104 21.496 26.784V15.864C21.496 15.56 21.56 15.344 21.688 15.216C21.832 15.072 22.056 15 22.36 15H26.128C26.432 15 26.648 15.072 26.776 15.216C26.92 15.344 26.992 15.56 26.992 15.864V27.744Z" fill="currentColor"/>
<path d="M44.9074 27.744C44.9074 28.48 44.7954 29.152 44.5714 29.76C44.3634 30.352 43.9794 30.864 43.4194 31.296C42.8754 31.712 42.1234 32.04 41.1634 32.28C40.2034 32.52 38.9794 32.64 37.4914 32.64C36.0034 32.64 34.7794 32.52 33.8194 32.28C32.8594 32.04 32.0994 31.712 31.5394 31.296C30.9954 30.864 30.6114 30.352 30.3874 29.76C30.1794 29.152 30.0754 28.48 30.0754 27.744V15.864C30.0754 15.56 30.1394 15.344 30.2674 15.216C30.4114 15.072 30.6354 15 30.9394 15H34.7074C35.0114 15 35.2274 15.072 35.3554 15.216C35.4994 15.344 35.5714 15.56 35.5714 15.864V26.808C35.5714 27.128 35.6914 27.4 35.9314 27.624C36.1714 27.832 36.7074 27.936 37.5394 27.936C38.3874 27.936 38.9314 27.832 39.1714 27.624C39.4114 27.4 39.5314 27.128 39.5314 26.808V15.864C39.5314 15.56 39.5954 15.344 39.7234 15.216C39.8674 15.072 40.0914 15 40.3954 15H44.0434C44.3474 15 44.5634 15.072 44.6914 15.216C44.8354 15.344 44.9074 15.56 44.9074 15.864V27.744Z" fill="currentColor"/>
<path d="M52.5417 32.28H48.9657C48.6617 32.28 48.4377 32.216 48.2937 32.088C48.1657 31.944 48.1017 31.72 48.1017 31.416V15.864C48.1017 15.56 48.1657 15.344 48.2937 15.216C48.4377 15.072 48.6617 15 48.9657 15H52.8297C53.0857 15 53.2937 15.056 53.4537 15.168C53.6297 15.28 53.7897 15.464 53.9337 15.72L56.0937 19.632C56.1737 19.776 56.2377 19.88 56.2857 19.944C56.3497 20.008 56.4297 20.04 56.5257 20.04H56.7417C56.8377 20.04 56.9097 20.008 56.9577 19.944C57.0217 19.88 57.0937 19.776 57.1737 19.632L59.3097 15.72C59.4537 15.464 59.6057 15.28 59.7657 15.168C59.9417 15.056 60.1577 15 60.4137 15H64.3017C64.6057 15 64.8217 15.072 64.9497 15.216C65.0937 15.344 65.1657 15.56 65.1657 15.864V31.416C65.1657 31.72 65.0937 31.944 64.9497 32.088C64.8217 32.216 64.6057 32.28 64.3017 32.28H60.6057C60.3017 32.28 60.0777 32.216 59.9337 32.088C59.8057 31.944 59.7417 31.72 59.7417 31.416V22.968L58.3257 25.584C58.1817 25.856 58.0057 26.056 57.7977 26.184C57.6057 26.296 57.3577 26.352 57.0537 26.352H56.0937C55.7897 26.352 55.5337 26.296 55.3257 26.184C55.1337 26.056 54.9657 25.856 54.8217 25.584L53.4057 22.968V31.416C53.4057 31.72 53.3337 31.944 53.1897 32.088C53.0617 32.216 52.8457 32.28 52.5417 32.28Z" fill="currentColor"/>
<path d="M73.0529 32.28H69.3329C69.0289 32.28 68.8049 32.216 68.6609 32.088C68.5329 31.944 68.4689 31.72 68.4689 31.416V15.864C68.4689 15.56 68.5329 15.344 68.6609 15.216C68.8049 15.072 69.0289 15 69.3329 15H76.6769C78.8529 15 80.3409 15.432 81.1409 16.296C81.9409 17.16 82.3409 18.288 82.3409 19.68V22.752C82.3409 24.144 81.9409 25.272 81.1409 26.136C80.3409 27 78.8529 27.432 76.6769 27.432H73.9169V31.416C73.9169 31.72 73.8449 31.944 73.7009 32.088C73.5729 32.216 73.3569 32.28 73.0529 32.28ZM73.8689 19.488V23.112H76.0289C76.4929 23.112 76.7969 22.992 76.9409 22.752C77.0849 22.512 77.1569 22.24 77.1569 21.936V20.664C77.1569 20.36 77.0849 20.088 76.9409 19.848C76.7969 19.608 76.4929 19.488 76.0289 19.488H73.8689Z" fill="currentColor"/>
</svg>
