<svg width="144" height="48" viewBox="0 0 144 48" fill="none" xmlns="http://www.w3.org/2000/svg">
<path d="M37.672 36.46H26.296C25.84 36.46 25.504 36.364 25.288 36.172C25.096 35.956 25 35.62 25 35.164V30.952C25 30.496 25.096 30.172 25.288 29.98C25.504 29.764 25.84 29.656 26.296 29.656H35.98C36.292 29.656 36.52 29.56 36.664 29.368C36.832 29.152 36.916 28.9 36.916 28.612C36.916 28.204 36.832 27.904 36.664 27.712C36.52 27.52 36.292 27.412 35.98 27.388L30.58 26.632C28.9 26.392 27.544 25.84 26.512 24.976C25.504 24.112 25 22.672 25 20.656V16.876C25 14.836 25.66 13.276 26.98 12.196C28.3 11.092 30.124 10.54 32.452 10.54H42.532C42.988 10.54 43.312 10.648 43.504 10.864C43.72 11.056 43.828 11.38 43.828 11.836V16.12C43.828 16.576 43.72 16.912 43.504 17.128C43.312 17.32 42.988 17.416 42.532 17.416H34.144C33.832 17.416 33.592 17.524 33.424 17.74C33.256 17.932 33.172 18.184 33.172 18.496C33.172 18.808 33.256 19.072 33.424 19.288C33.592 19.504 33.832 19.624 34.144 19.648L39.508 20.368C41.188 20.608 42.544 21.16 43.576 22.024C44.608 22.888 45.124 24.328 45.124 26.344V30.124C45.124 32.164 44.452 33.736 43.108 34.84C41.788 35.92 39.976 36.46 37.672 36.46Z" fill="currentColor"/>
<path d="M60.9505 36.46H55.1185C54.6625 36.46 54.3265 36.364 54.1105 36.172C53.9185 35.956 53.8225 35.62 53.8225 35.164V17.488H48.5305C48.0745 17.488 47.7385 17.392 47.5225 17.2C47.3305 16.984 47.2345 16.648 47.2345 16.192V11.836C47.2345 11.38 47.3305 11.056 47.5225 10.864C47.7385 10.648 48.0745 10.54 48.5305 10.54H67.5385C67.9945 10.54 68.3185 10.648 68.5105 10.864C68.7265 11.056 68.8345 11.38 68.8345 11.836V16.192C68.8345 16.648 68.7265 16.984 68.5105 17.2C68.3185 17.392 67.9945 17.488 67.5385 17.488H62.2465V35.164C62.2465 35.62 62.1385 35.956 61.9225 36.172C61.7305 36.364 61.4065 36.46 60.9505 36.46Z" fill="currentColor"/>
<path d="M94.1197 29.656C94.1197 30.76 93.9517 31.768 93.6157 32.68C93.3037 33.568 92.7277 34.336 91.8877 34.984C91.0717 35.608 89.9317 36.1 88.4677 36.46C87.0277 36.82 85.1917 37 82.9597 37C80.7277 37 78.8797 36.82 77.4157 36.46C75.9517 36.1 74.7997 35.608 73.9597 34.984C73.1437 34.336 72.5677 33.568 72.2317 32.68C71.9197 31.768 71.7637 30.76 71.7637 29.656V17.38C71.7637 16.276 71.9197 15.28 72.2317 14.392C72.5677 13.48 73.1437 12.7 73.9597 12.052C74.7997 11.404 75.9517 10.9 77.4157 10.54C78.8797 10.18 80.7277 10 82.9597 10C85.1917 10 87.0277 10.18 88.4677 10.54C89.9317 10.9 91.0717 11.404 91.8877 12.052C92.7277 12.7 93.3037 13.48 93.6157 14.392C93.9517 15.28 94.1197 16.276 94.1197 17.38V29.656ZM79.9357 28.36C79.9357 28.84 80.1157 29.248 80.4757 29.584C80.8357 29.896 81.6637 30.052 82.9597 30.052C84.2557 30.052 85.0837 29.896 85.4437 29.584C85.8037 29.248 85.9837 28.84 85.9837 28.36V18.676C85.9837 18.22 85.8037 17.836 85.4437 17.524C85.0837 17.188 84.2557 17.02 82.9597 17.02C81.6637 17.02 80.8357 17.188 80.4757 17.524C80.1157 17.836 79.9357 18.22 79.9357 18.676V28.36Z" fill="currentColor"/>
<path d="M105.579 36.46H99.9987C99.5427 36.46 99.2067 36.364 98.9907 36.172C98.7987 35.956 98.7027 35.62 98.7027 35.164V11.836C98.7027 11.38 98.7987 11.056 98.9907 10.864C99.2067 10.648 99.5427 10.54 99.9987 10.54H111.015C114.279 10.54 116.511 11.188 117.711 12.484C118.911 13.78 119.511 15.472 119.511 17.56V22.168C119.511 24.256 118.911 25.948 117.711 27.244C116.511 28.54 114.279 29.188 111.015 29.188H106.875V35.164C106.875 35.62 106.767 35.956 106.551 36.172C106.359 36.364 106.035 36.46 105.579 36.46ZM106.803 17.272V22.708H110.043C110.739 22.708 111.195 22.528 111.411 22.168C111.627 21.808 111.735 21.4 111.735 20.944V19.036C111.735 18.58 111.627 18.172 111.411 17.812C111.195 17.452 110.739 17.272 110.043 17.272H106.803Z" fill="currentColor"/>
</svg>
