<svg width="144" height="64" viewBox="0 0 144 64" fill="none" xmlns="http://www.w3.org/2000/svg">
<path d="M120.198 26.7226C118.269 26.0776 104.85 23.1451 104.85 23.1451C104.85 23.1451 79.9753 9 76.9901 9C74.0048 9 53.527 9.0091 53.527 9.0091C48.5237 9.0091 44.3425 12.8217 39.5013 17.2358C37.2197 19.3156 34.7013 21.6046 31.9235 23.6406L21.5778 25.0163C20.0828 25.4929 19 26.8917 19 28.5445L19 40.398C19 42.4437 20.6581 44.1021 22.7039 44.1021H29.8131C30.3295 50.052 35.3343 54.7368 41.4159 54.7368C47.4972 54.7368 52.5024 50.0519 53.0187 44.1023L86.9647 44.1023C87.481 50.0522 92.4859 54.7368 98.5675 54.7368C104.649 54.7368 109.654 50.0519 110.17 44.1023H116.011C120.639 44.1023 122.9 42.1035 123.468 40.2273C124.904 35.4796 123.871 27.9507 120.198 26.7226ZM41.4159 49.1224C38.0881 49.1224 35.3805 46.4151 35.3805 43.0873C35.3805 39.7594 38.0877 37.0518 41.4159 37.0518C44.7438 37.0518 47.451 39.7591 47.451 43.0873C47.4512 46.4151 44.7438 49.1224 41.4159 49.1224ZM63.8191 23.1454H43.5783C45.0424 21.9887 46.396 20.761 47.643 19.6244C50.9204 16.6362 53.7509 14.0553 57.1379 14.0553C57.1379 14.0553 60.203 14.0539 63.8193 14.0524L63.8193 23.1454H63.8191ZM68.7479 14.0505C71.2529 14.0496 73.4859 14.049 74.6061 14.049C77.3957 14.049 88.71 20.6195 92.9564 23.1456L68.7479 23.1456L68.7479 14.0505ZM98.5673 49.1224C95.2395 49.1224 92.5322 46.4151 92.5322 43.0873C92.5322 39.7594 95.2395 37.0518 98.5673 37.0518C101.895 37.0518 104.603 39.7591 104.603 43.0873C104.603 46.4151 101.895 49.1224 98.5673 49.1224Z" fill="currentColor"/>
</svg>
