<svg width="48" height="48" viewBox="0 0 48 48" fill="none" xmlns="http://www.w3.org/2000/svg">
<path d="M36.7225 34.8763L23.2025 30.9523C21.7357 30.5203 20.612 29.9323 19.8313 29.1883C19.0743 28.4203 18.6958 27.1483 18.6958 25.3723V22.7803C18.6958 21.0043 19.0743 19.7443 19.8313 19.0003C20.612 18.2323 21.7357 17.6323 23.2025 17.2003L36.7225 13.2763C37.172 13.1803 37.4913 13.2283 37.6806 13.4203C37.8935 13.6123 38 13.9363 38 14.3923V19.1443C38 19.6003 37.8935 19.9483 37.6806 20.1883C37.4913 20.4043 37.172 20.5483 36.7225 20.6203L26.5381 23.3923C26.3015 23.4403 26.1359 23.5123 26.0413 23.6083C25.9703 23.7043 25.9349 23.8603 25.9349 24.0763C25.9349 24.2923 25.9703 24.4483 26.0413 24.5443C26.1359 24.6403 26.3015 24.7123 26.5381 24.7603L36.7225 27.5323C37.172 27.6043 37.4913 27.7603 37.6806 28.0003C37.8935 28.2163 38 28.5523 38 29.0083V33.7603C38 34.2163 37.8935 34.5403 37.6806 34.7323C37.4913 34.9243 37.172 34.9723 36.7225 34.8763Z" fill="currentColor"/>
<path fill-rule="evenodd" clip-rule="evenodd" d="M6 24.0002C6 22.8957 6.88264 22.0002 7.97142 22.0002H13.8857C14.9745 22.0002 15.8571 22.8957 15.8571 24.0002C15.8571 25.1048 14.9745 26.0002 13.8857 26.0002H7.97142C6.88264 26.0002 6 25.1048 6 24.0002Z" fill="currentColor"/>
<path fill-rule="evenodd" clip-rule="evenodd" d="M11.2595 8.89081C11.8635 7.97175 13.0875 7.72341 13.9934 8.33611L19.9077 12.3361C20.8136 12.9488 21.0584 14.1906 20.4544 15.1096C19.8505 16.0287 18.6265 16.277 17.7206 15.6643L11.8063 11.6643C10.9004 11.0516 10.6556 9.80987 11.2595 8.89081Z" fill="currentColor"/>
<path fill-rule="evenodd" clip-rule="evenodd" d="M11.2595 39.1097C11.8635 40.0287 13.0875 40.2771 13.9934 39.6644L19.9077 35.6644C20.8136 35.0517 21.0584 33.8099 20.4544 32.8909C19.8505 31.9718 18.6265 31.7235 17.7206 32.3362L11.8063 36.3362C10.9004 36.9489 10.6556 38.1906 11.2595 39.1097Z" fill="currentColor"/>
</svg>
