<svg width="64" height="64" viewBox="0 0 64 64" fill="none" xmlns="http://www.w3.org/2000/svg">
<path d="M45.198 49.2793L9.384 59.5253C8.19333 59.776 7.316 59.6507 6.752 59.1493C6.25067 58.648 6 57.802 6 56.6113V44.2033C6 43.0127 6.25067 42.1353 6.752 41.5713C7.316 40.9447 8.19333 40.5373 9.384 40.3493L36.362 33.1113C36.9887 32.986 37.396 32.798 37.584 32.5473C37.8347 32.2967 37.96 31.8893 37.96 31.3253C37.96 30.7613 37.8347 30.354 37.584 30.1033C37.396 29.8527 36.9887 29.6647 36.362 29.5393L9.384 22.3013C8.19333 22.1133 7.316 21.7373 6.752 21.1733C6.25067 20.5467 6 19.638 6 18.4473V6.03934C6 4.84867 6.25067 4.00267 6.752 3.50133C7.316 3 8.19333 2.87467 9.384 3.12533L45.198 13.3713C49.0833 14.4993 52.0287 16.066 54.034 18.0713C56.102 20.014 57.136 23.304 57.136 27.9413V34.7093C57.136 39.3467 56.102 42.668 54.034 44.6733C52.0287 46.616 49.0833 48.1513 45.198 49.2793Z" fill="currentColor"/>
</svg>
