<svg width="64" height="64" viewBox="0 0 64 64" fill="none" xmlns="http://www.w3.org/2000/svg">
<path d="M53.752 60.5253L17.938 50.2793C14.0527 49.1513 11.076 47.616 9.008 45.6733C7.00267 43.668 6 40.3467 6 35.7093V28.9413C6 24.304 7.00267 21.014 9.008 19.0713C11.076 17.066 14.0527 15.4993 17.938 14.3713L53.752 4.12533C54.9427 3.87467 55.7887 4 56.29 4.50133C56.854 5.00267 57.136 5.84867 57.136 7.03934V19.4473C57.136 20.638 56.854 21.5467 56.29 22.1733C55.7887 22.7373 54.9427 23.1133 53.752 23.3013L26.774 30.5393C26.1473 30.6647 25.7087 30.8527 25.458 31.1033C25.27 31.354 25.176 31.7613 25.176 32.3253C25.176 32.8893 25.27 33.2967 25.458 33.5473C25.7087 33.798 26.1473 33.986 26.774 34.1113L53.752 41.3493C54.9427 41.5373 55.7887 41.9447 56.29 42.5713C56.854 43.1353 57.136 44.0127 57.136 45.2033V57.6113C57.136 58.802 56.854 59.648 56.29 60.1493C55.7887 60.6507 54.9427 60.776 53.752 60.5253Z" fill="currentColor"/>
</svg>
