<svg width="144" height="48" viewBox="0 0 144 48" fill="none" xmlns="http://www.w3.org/2000/svg">
<path d="M68.196 36.46H56.856C53.856 36.46 51.624 35.86 50.16 34.66C48.72 33.46 48 31.612 48 29.116V17.884C48 15.388 48.72 13.54 50.16 12.34C51.624 11.14 53.856 10.54 56.856 10.54H65.856C66.312 10.54 66.636 10.648 66.828 10.864C67.044 11.056 67.152 11.38 67.152 11.836V16.192C67.152 16.648 67.044 16.984 66.828 17.2C66.636 17.392 66.312 17.488 65.856 17.488H58.368C57.624 17.488 57.072 17.644 56.712 17.956C56.352 18.244 56.172 18.688 56.172 19.288V27.892C56.172 28.492 56.304 28.936 56.568 29.224C56.856 29.512 57.276 29.656 57.828 29.656H61.32V24.04C61.32 23.584 61.416 23.26 61.608 23.068C61.824 22.852 62.16 22.744 62.616 22.744H68.196C68.652 22.744 68.976 22.852 69.168 23.068C69.384 23.26 69.492 23.584 69.492 24.04V35.164C69.492 35.62 69.384 35.956 69.168 36.172C68.976 36.364 68.652 36.46 68.196 36.46Z" fill="currentColor"/>
<path d="M95.8443 29.656C95.8443 30.76 95.6763 31.768 95.3403 32.68C95.0283 33.568 94.4523 34.336 93.6123 34.984C92.7963 35.608 91.6563 36.1 90.1923 36.46C88.7523 36.82 86.9163 37 84.6843 37C82.4523 37 80.6043 36.82 79.1403 36.46C77.6763 36.1 76.5243 35.608 75.6843 34.984C74.8683 34.336 74.2923 33.568 73.9563 32.68C73.6443 31.768 73.4883 30.76 73.4883 29.656V17.38C73.4883 16.276 73.6443 15.28 73.9563 14.392C74.2923 13.48 74.8683 12.7 75.6843 12.052C76.5243 11.404 77.6763 10.9 79.1403 10.54C80.6043 10.18 82.4523 10 84.6843 10C86.9163 10 88.7523 10.18 90.1923 10.54C91.6563 10.9 92.7963 11.404 93.6123 12.052C94.4523 12.7 95.0283 13.48 95.3403 14.392C95.6763 15.28 95.8443 16.276 95.8443 17.38V29.656ZM81.6603 28.36C81.6603 28.84 81.8403 29.248 82.2003 29.584C82.5603 29.896 83.3883 30.052 84.6843 30.052C85.9803 30.052 86.8083 29.896 87.1683 29.584C87.5283 29.248 87.7083 28.84 87.7083 28.36V18.676C87.7083 18.22 87.5283 17.836 87.1683 17.524C86.8083 17.188 85.9803 17.02 84.6843 17.02C83.3883 17.02 82.5603 17.188 82.2003 17.524C81.8403 17.836 81.6603 18.22 81.6603 18.676V28.36Z" fill="currentColor"/>
</svg>
